<?xml version="1.0" encoding="iso-8859-1"?>
<!-- Generator: Adobe Illustrator 19.1.0, SVG Export Plug-In . SVG Version: 6.00 Build 0)  -->
<svg xmlns="http://www.w3.org/2000/svg" xmlns:xlink="http://www.w3.org/1999/xlink" version="1.1" id="Capa_1" x="0px" y="0px" viewBox="0 0 1125.628 1125.628" style="enable-background:new 0 0 1125.628 1125.628;" xml:space="preserve" width="512px" height="512px">
<g>
	<path d="M562.812,0.002C252.476,0.002,0,252.478,0,562.814s252.476,562.812,562.812,562.812   c310.34,0,562.816-252.476,562.816-562.812S873.152,0.002,562.812,0.002z M486.728,772.326c-1.098,0.777-2.155,1.62-3.268,2.372   c-0.236,0.173-0.456,0.37-0.693,0.542c-0.013-0.018-0.025-0.037-0.037-0.055c-30.952,20.671-67.743,31.53-107.262,31.53   c-40.185,0-77.557-11.217-108.829-32.574c-50.889-37.808-80.602-105.08-80.602-191.773c0-142.03,94.164-276.267,165.068-303.449   c8.201-2.307,16.353-3.575,24.363-3.575c6.95,0,14.097,1.121,21.34,3.078c27.134,10.34,63.03,38.717,97.073,88.414   c44.47,64.927,71.016,145.497,71.016,215.531C564.898,667.677,536.137,734.197,486.728,772.326z M763.386,816.087   c-82.095,45.793-159.189,46.28-217.546,15.038c0,0,0.002-0.002,0.002-0.002c3.873-3.293,7.642-6.718,11.325-10.252   c0.276-0.264,0.549-0.532,0.823-0.797c3.488-3.377,6.888-6.857,10.199-10.444c0.247-0.267,0.496-0.53,0.742-0.798   c14.092-15.399,26.544-32.678,37.155-51.659c0.354-0.633,0.692-1.281,1.042-1.918c2.18-3.967,4.281-8.002,6.299-12.112   c0.5-1.016,0.99-2.038,1.479-3.063c1.846-3.866,3.617-7.793,5.319-11.779c0.477-1.115,0.961-2.223,1.427-3.347   c1.733-4.193,3.379-8.454,4.952-12.773c0.321-0.879,0.664-1.74,0.978-2.624c3.723-10.501,6.981-21.355,9.734-32.554   c0.292-1.188,0.539-2.406,0.82-3.602c1.005-4.279,1.958-8.591,2.819-12.965c0.368-1.868,0.694-3.762,1.035-5.647   c0.686-3.793,1.328-7.612,1.905-11.473c0.317-2.119,0.614-4.247,0.897-6.386c0.499-3.772,0.936-7.579,1.331-11.411   c0.223-2.164,0.455-4.32,0.644-6.503c0.355-4.098,0.621-8.243,0.856-12.406c0.109-1.924,0.256-3.826,0.338-5.764   c0.26-6.098,0.419-12.249,0.419-18.479c0-5.213-0.128-10.442-0.347-15.679c-0.016-0.393-0.024-0.786-0.042-1.179   c-0.225-5.01-0.563-10.028-0.982-15.05c-0.051-0.607-0.093-1.213-0.146-1.82c-0.431-4.899-0.962-9.801-1.571-14.703   c-0.089-0.713-0.173-1.425-0.266-2.139c-0.628-4.85-1.344-9.697-2.14-14.54c-0.121-0.739-0.244-1.476-0.369-2.215   c-0.822-4.849-1.724-9.691-2.709-14.525c-0.141-0.693-0.288-1.385-0.432-2.078c-1.021-4.896-2.116-9.783-3.298-14.655   c-0.139-0.573-0.286-1.145-0.427-1.718c-1.233-5.001-2.537-9.988-3.934-14.953c-0.1-0.356-0.207-0.709-0.308-1.065   c-1.47-5.184-3.015-10.348-4.656-15.483c119.603-40.372,262.734-17.109,300.259,50.164   C967.989,574.19,889.527,745.725,763.386,816.087z" fill="#999999"/>
</g>
<g>
</g>
<g>
</g>
<g>
</g>
<g>
</g>
<g>
</g>
<g>
</g>
<g>
</g>
<g>
</g>
<g>
</g>
<g>
</g>
<g>
</g>
<g>
</g>
<g>
</g>
<g>
</g>
<g>
</g>
</svg>
