<svg id="Capa_1" enable-background="new 0 0 512 512" height="512" viewBox="0 0 512 512" width="512" xmlns="http://www.w3.org/2000/svg"><g><path d="m299.538 87.106h-15v207.652l-123.124 166.903 12.06 8.906c36.702 27.106 80.294 41.433 126.064 41.433 117.144 0 212.446-95.304 212.446-212.447s-95.303-212.447-212.446-212.447z"/><path d="m61.28 118.691c-12.568 14.572-24.664 29.2-34.129 46.07-13.218 23.56-21.871 49.621-25.374 76.408-7.525 57.548 9.295 116.746 45.957 161.721 14.634 17.952 32.198 32.098 50.706 45.761l134.312-182.067z"/><path d="m239.394 0c-30.873 0-60.247 3.03-88.711 16.077-28.473 13.051-49.953 33.332-70.12 56.72l158.831 136.987z"/></g></svg>