<svg id="Layer_1" enable-background="new 0 0 512 512" height="512" viewBox="0 0 512 512" width="512" xmlns="http://www.w3.org/2000/svg"><path d="m436.681 48.568c-64.757-64.757-169.748-64.757-234.505 0l-9.782 9.782-156.797 156.796c-11.794 11.794-11.794 30.915 0 42.709 11.787 11.787 30.907 11.787 42.702-.007l166.579-166.578c41.168-41.168 107.919-41.167 149.093.007 41.168 41.168 41.168 107.918 0 149.086l-193.596 193.597c-23.518 23.518-61.645 23.518-85.164 0-23.511-23.512-23.511-61.639.007-85.157l42.64-42.64 123.844-123.844c5.862-5.862 15.365-5.862 21.228 0 5.862 5.862 5.862 15.365 0 21.228l-139.466 139.465c-11.794 11.794-11.794 30.914-.007 42.702 11.794 11.794 30.915 11.794 42.709 0l139.466-139.466c29.451-29.451 29.451-77.195.007-106.639-29.451-29.451-77.195-29.451-106.646 0l-166.485 166.485c-47.107 47.107-47.107 123.475-.007 170.576 47.107 47.107 123.475 47.107 170.583 0l193.596-193.597c64.758-64.757 64.758-169.749.001-234.505z"/></svg>