<?xml version="1.0" encoding="iso-8859-1"?>
<!-- Generator: Adobe Illustrator 19.0.0, SVG Export Plug-In . SVG Version: 6.00 Build 0)  -->
<svg xmlns="http://www.w3.org/2000/svg" xmlns:xlink="http://www.w3.org/1999/xlink" version="1.1" id="Layer_1" x="0px" y="0px" viewBox="0 0 512 512" style="enable-background:new 0 0 512 512;" xml:space="preserve" width="512px" height="512px">
<g>
	<g>
		<path d="M298.888,150.059c-1.429-4.395-5.525-7.381-10.155-7.381h-58.005l-17.92-55.168c-2.859-8.789-17.429-8.789-20.288,0    l-17.92,55.168h-58.027c-4.629,0-8.725,2.987-10.155,7.381s0.149,9.216,3.883,11.925l46.933,34.112l-17.92,55.147    c-1.429,4.395,0.128,9.216,3.883,11.925c3.755,2.731,8.789,2.731,12.544,0l46.933-34.091l46.933,34.091    c1.877,1.365,4.075,2.048,6.272,2.048s4.395-0.683,6.272-2.048c3.712-2.709,5.269-7.531,3.84-11.925l-17.92-55.147l46.933-34.112    C298.739,159.275,300.318,154.453,298.888,150.059z" fill="#999999"/>
	</g>
</g>
<g>
	<g>
		<path d="M165.576,278.912c-4.032-2.496-9.216-1.984-12.757,1.173C124.51,305.707,42.654,421.568,42.654,501.333    c0,4.309,2.603,8.213,6.592,9.856c1.323,0.555,2.709,0.811,4.075,0.811c2.773,0,5.504-1.088,7.552-3.115l35.115-35.136    l35.115,35.115c3.157,3.157,7.979,4.032,12.032,2.133c4.053-1.877,6.507-6.123,6.123-10.581    c-0.085-1.003-8.341-102.635,20.992-209.6C171.528,286.251,169.608,281.387,165.576,278.912z" fill="#999999"/>
	</g>
</g>
<g>
	<g>
		<path d="M146.206,109.803l-21.333-21.333c-4.16-4.16-10.923-4.16-15.083,0c-4.16,4.16-4.16,10.923,0,15.083l21.333,21.312    c2.069,2.091,4.8,3.136,7.531,3.136s5.461-1.045,7.552-3.115C150.366,120.725,150.366,113.963,146.206,109.803z" fill="#999999"/>
	</g>
</g>
<g>
	<g>
		<path d="M92.872,56.469L82.206,45.803c-4.16-4.16-10.923-4.16-15.083,0c-4.16,4.16-4.16,10.923,0,15.083L77.79,71.531    c2.069,2.091,4.8,3.136,7.531,3.136c2.731,0,5.461-1.045,7.552-3.115C97.032,67.392,97.032,60.629,92.872,56.469z" fill="#999999"/>
	</g>
</g>
<g>
	<g>
		<path d="M202.654,0c-5.888,0-10.667,4.779-10.667,10.667v42.667c0,5.888,4.779,10.667,10.667,10.667s10.667-4.779,10.667-10.667    V10.667C213.32,4.779,208.542,0,202.654,0z" fill="#999999"/>
	</g>
</g>
<g>
	<g>
		<path d="M338.206,45.803c-4.16-4.16-10.923-4.16-15.083,0l-64,64c-4.16,4.16-4.16,10.923,0,15.083    c2.069,2.069,4.8,3.115,7.531,3.115c2.731,0,5.461-1.045,7.552-3.115l64-64C342.366,56.725,342.366,49.963,338.206,45.803z" fill="#999999"/>
	</g>
</g>
<g>
	<g>
		<path d="M380.872,3.136c-4.16-4.16-10.923-4.16-15.083,0l-10.667,10.667c-4.16,4.16-4.16,10.923,0,15.083    c2.069,2.069,4.8,3.115,7.531,3.115s5.461-1.045,7.552-3.115l10.667-10.667C385.032,14.059,385.032,7.296,380.872,3.136z" fill="#999999"/>
	</g>
</g>
<g>
	<g>
		<path d="M437.32,149.333H330.654c-5.888,0-10.667,4.779-10.667,10.667s4.779,10.667,10.667,10.667H437.32    c5.888,0,10.667-4.779,10.667-10.667S443.208,149.333,437.32,149.333z" fill="#999999"/>
	</g>
</g>
<g>
	<g>
		<path d="M501.32,149.333h-21.333c-5.888,0-10.667,4.779-10.667,10.667s4.779,10.667,10.667,10.667h21.333    c5.888,0,10.667-4.779,10.667-10.667S507.208,149.333,501.32,149.333z" fill="#999999"/>
	</g>
</g>
<g>
	<g>
		<path d="M76.424,138.816l-64-10.667c-5.845-1.024-11.307,2.965-12.267,8.768c-0.96,5.803,2.965,11.307,8.768,12.267l64,10.667    c0.576,0.107,1.152,0.149,1.749,0.149c5.12,0,9.643-3.691,10.517-8.917C86.152,145.28,82.227,139.776,76.424,138.816z" fill="#999999"/>
	</g>
</g>
<g>
	<g>
		<path d="M124.872,195.136c-4.16-4.16-10.923-4.16-15.083,0l-64,64c-4.181,4.16-4.181,10.901,0,15.061    c2.069,2.091,4.8,3.136,7.531,3.136c2.731,0,5.461-1.045,7.552-3.115l64-64C129.032,206.059,129.032,199.296,124.872,195.136z" fill="#999999"/>
	</g>
</g>
<g>
	<g>
		<path d="M359.539,259.136l-42.667-42.688c-4.16-4.16-10.923-4.16-15.083,0s-4.16,10.923,0,15.083l42.667,42.667    c2.069,2.091,4.8,3.136,7.531,3.136c2.731,0,5.461-1.045,7.552-3.115C363.699,270.059,363.699,263.296,359.539,259.136z" fill="#999999"/>
	</g>
</g>
<g>
	<g>
		<path d="M402.206,301.803l-10.667-10.688c-4.16-4.16-10.923-4.16-15.083,0c-4.16,4.16-4.16,10.923,0,15.083l10.667,10.667    c2.069,2.091,4.8,3.136,7.531,3.136s5.461-1.045,7.552-3.115C406.366,312.725,406.366,305.963,402.206,301.803z" fill="#999999"/>
	</g>
</g>
<g>
	<g>
		<path d="M298.099,348.629l-21.333-64c-1.856-5.589-7.872-8.619-13.483-6.741c-5.589,1.856-8.597,7.893-6.741,13.483l21.333,64    c1.493,4.48,5.653,7.296,10.112,7.296c1.109,0,2.24-0.171,3.371-0.555C296.947,360.256,299.955,354.219,298.099,348.629z" fill="#999999"/>
	</g>
</g>
<g>
</g>
<g>
</g>
<g>
</g>
<g>
</g>
<g>
</g>
<g>
</g>
<g>
</g>
<g>
</g>
<g>
</g>
<g>
</g>
<g>
</g>
<g>
</g>
<g>
</g>
<g>
</g>
<g>
</g>
</svg>
