<?xml version="1.0" encoding="iso-8859-1"?>
<!-- Generator: Adobe Illustrator 19.0.0, SVG Export Plug-In . SVG Version: 6.00 Build 0)  -->
<svg xmlns="http://www.w3.org/2000/svg" xmlns:xlink="http://www.w3.org/1999/xlink" version="1.1" id="Layer_1" x="0px" y="0px" viewBox="0 0 500.004 500.004" style="enable-background:new 0 0 500.004 500.004;" xml:space="preserve" width="512px" height="512px">
<g>
	<g>
		<path d="M366.246,339.844H312.51v-70.312h7.792c6.46,0,11.74-5.356,11.74-11.812V250h7.592c10.764,0,19.752-8.856,19.752-19.616    V93.592c0-10.764-8.984-19.376-19.752-19.376h-27.092C310.842,35.156,274.442,0,232.962,0h-47.564    c-43.968,0-79.916,35.772-79.916,79.748v13.06c-15.624,32.476-35.204,74.568-35.204,92.248c0,27.088,21.132,49.128,47.056,49.128    c25.924,0,46.944-22.04,46.944-49.128c0-18.612-23.64-65.484-35.36-92.256V79.748c0-31.056,25.428-56.308,56.48-56.308h47.568    c31.012,0,54.416,27.344,56.14,50.78h-27.38c-10.764,0-19.528,8.608-19.528,19.376v136.788c0,10.76,8.76,19.616,19.528,19.616    h7.816v7.72c0,6.456,5.188,11.812,11.644,11.812h7.888v70.312h-110.48c-5.584-27.344-30.952-50.652-61.352-50.652    c-34.476,0-62.532,28.032-62.532,62.508c0,34.476,28.056,62.568,62.532,62.568c30.548,0,56-23.64,61.42-50.984H289.07v58.644    c0,43.048,35.072,78.076,78.12,78.076c43.048,0,78.104-34.976,78.104-78.028C445.298,376.66,409.846,339.844,366.246,339.844z     M128.918,351.672c0,6.472-5.248,11.716-11.72,11.716c-6.472,0-11.72-5.244-11.72-11.716v-26.844    c0-6.468,5.248-11.716,11.72-11.716c6.472,0,11.72,5.248,11.72,11.716V351.672z M367.202,476.572    c-30.136,0-54.692-24.512-54.692-54.644V363.28h53.736c30.684,0,55.624,26.3,55.624,58.7    C421.87,452.108,397.338,476.572,367.202,476.572z" fill="#999999"/>
	</g>
</g>
<g>
</g>
<g>
</g>
<g>
</g>
<g>
</g>
<g>
</g>
<g>
</g>
<g>
</g>
<g>
</g>
<g>
</g>
<g>
</g>
<g>
</g>
<g>
</g>
<g>
</g>
<g>
</g>
<g>
</g>
</svg>
