<?xml version="1.0" encoding="iso-8859-1"?>
<!-- Generator: Adobe Illustrator 19.0.0, SVG Export Plug-In . SVG Version: 6.00 Build 0)  -->
<svg xmlns="http://www.w3.org/2000/svg" xmlns:xlink="http://www.w3.org/1999/xlink" version="1.1" id="Layer_1" x="0px" y="0px" viewBox="0 0 512 512" style="enable-background:new 0 0 512 512;" xml:space="preserve" width="512px" height="512px">
<g>
	<g>
		<g>
			<path d="M461.568,102.976c-10.091-11.221-24.533-17.643-39.637-17.643h-71.019C345.536,37.461,305.28,0,256,0     s-89.536,37.461-94.912,85.333H90.069c-15.104,0-29.547,6.421-39.637,17.643c-10.091,11.221-14.997,26.261-13.397,41.28     l33.685,320C73.579,491.477,96.384,512,123.755,512h264.491c27.392,0,50.197-20.523,53.035-47.744l33.685-320     C476.565,129.237,471.659,114.197,461.568,102.976z M266.667,490.667h-21.333V190.912C248.875,191.317,252.352,192,256,192     s7.125-0.683,10.667-1.088V490.667z M329.216,110.357c-0.341,1.771-0.981,3.413-1.451,5.141     c-0.747,2.752-1.493,5.525-2.539,8.149c-0.875,2.176-2.005,4.203-3.093,6.272c-0.981,1.92-1.941,3.84-3.072,5.653     c-1.493,2.347-3.2,4.544-4.928,6.699c-0.981,1.237-1.963,2.496-3.029,3.669c-2.155,2.368-4.501,4.565-6.933,6.635     c-0.832,0.704-1.643,1.408-2.496,2.069c-2.837,2.197-5.824,4.203-8.981,5.995c-0.555,0.32-1.131,0.619-1.707,0.939     c-3.477,1.856-7.104,3.477-10.88,4.757c-0.277,0.107-0.576,0.171-0.853,0.256c-4.053,1.323-8.235,2.368-12.565,2.987     c-3.52,0.512-7.019,1.088-10.667,1.088c-3.648,0-7.147-0.576-10.667-1.088c-4.331-0.619-8.512-1.664-12.565-2.987     c-0.277-0.085-0.576-0.171-0.853-0.256c-3.776-1.28-7.403-2.923-10.88-4.757c-0.576-0.299-1.152-0.597-1.707-0.939     c-3.179-1.771-6.165-3.797-9.003-5.995c-0.853-0.661-1.685-1.365-2.496-2.069c-2.453-2.069-4.779-4.267-6.955-6.635     c-1.067-1.173-2.027-2.411-3.008-3.648c-1.749-2.155-3.456-4.373-4.949-6.72c-1.152-1.813-2.091-3.755-3.072-5.653     c-1.067-2.069-2.219-4.096-3.093-6.272c-1.045-2.624-1.792-5.397-2.539-8.149c-0.469-1.728-1.109-3.371-1.451-5.141     c-0.917-4.651-1.451-9.451-1.451-14.357c0-37.504,27.904-68.352,64-73.579V32c0,5.888,4.779,10.667,10.667,10.667     S266.667,37.888,266.667,32v-9.579c36.096,5.227,64,36.075,64,73.579C330.667,100.928,330.133,105.707,329.216,110.357z" fill="#999999"/>
			<path d="M263.552,88.469c-4.16-4.16-10.923-4.16-15.083,0c-4.16,4.16-4.16,10.923,0,15.083l32,32     c2.069,2.069,4.8,3.115,7.531,3.115s5.461-1.045,7.552-3.115c4.16-4.16,4.16-10.923,0-15.083L263.552,88.469z" fill="#999999"/>
		</g>
	</g>
</g>
<g>
</g>
<g>
</g>
<g>
</g>
<g>
</g>
<g>
</g>
<g>
</g>
<g>
</g>
<g>
</g>
<g>
</g>
<g>
</g>
<g>
</g>
<g>
</g>
<g>
</g>
<g>
</g>
<g>
</g>
</svg>
