<svg id="Layer_1" data-name="Layer 1" xmlns="http://www.w3.org/2000/svg" viewBox="0 0 200 33.75">
  <defs>
    <style>
      .cls-1 {
        fill: #998675;
      }
    </style>
  </defs>
  <title>2044</title>
  <g>
    <g>
      <polygon class="cls-1" points="35.877 32.024 33.549 5.668 31.992 24.784 27.75 18.368 26.239 18.368 24.666 14.609 23.185 18.501 6.865 18.501 6.865 17.682 22.7 17.682 24.631 12.597 26.707 17.543 28.119 17.543 31.439 22.582 33.18 1.311 33.9 1.305 36.074 25.948 37.319 17.889 38.034 18.028 35.877 32.024"/>
      <path class="cls-1" d="M98.31155,18.11375l-1.9302-5.0898-2.081,4.958h-1.4126l-1.9307,2.9336-1.9429-2.9336h-1.4121l-2.0698-4.958-1.9307,5.0898H67.76665v.8135h16.3134l1.4815-3.9033,1.5732,3.7646h1.5108l2.3115,3.4932v0l2.2998-3.4932h1.5103l1.5737-3.7646,1.4814,3.9033h16.3164v-.8135Z"/>
      <path class="cls-1" d="M55.108,14.82275l1.5791,3.7696h1.5107l4.2368,6.416,1.5621-19.1202,2.2651,25.7266c.0522.0401.0923.0801.1387.1211l2.081-13.4893-.7148-.1445-1.2451,8.0645L64.34815,1.524l-.7319.0176-1.7354,21.247-3.3144-5.0205h-1.4121l-2.0811-4.9453-1.9253,5.084-15.8179.0176-.121.9219,16.4233-.1211Z"/>
    </g>
    <g>
      <path class="cls-1" d="M162.44435,19.76225c0-.2881.127-1.1407.127-1.1407l1.9482-4.8769,2.0635,4.9512h1.4179l1.9375,2.9345,1.9366-2.9345h1.4062l2.0869-4.9512,1.9258,5.0957h15.8408v.8125h-16.3252l-1.4873-3.9023-1.5683,3.7646h-1.5098l-2.3057,3.4873v0l-2.2949-3.4873H166.122l-1.5673-3.7646-1.7764,4.0117Z"/>
      <g>
        <polygon class="cls-1" points="130.659 32.445 128.343 6.084 126.774 25.187 122.543 18.777 121.022 18.777 119.453 15.019 117.978 18.921 101.661 18.921 101.661 18.091 117.493 18.091 119.431 13.018 121.494 17.964 122.912 17.964 126.232 22.991 127.962 1.726 128.688 1.726 130.866 26.363 132.101 18.304 132.827 18.443 130.659 32.445"/>
        <path class="cls-1" d="M149.90135,15.24365l1.5674,3.7578h1.5225l4.2305,6.4219L158.79,6.30815l2.2598,25.7217a1.32145,1.32145,0,0,1,.1377.121l2.0869-13.4892-.6797-.1035-1.292,8.0293-2.167-24.6426h-.7265l-1.7295,21.2646-3.3204-5.0205h-1.4179l-2.0752-4.957-1.9248,5.0898-15.8174.0225-.127.917,16.417-.1152Z"/>
      </g>
    </g>
  </g>
</svg>
