<?xml version="1.0" encoding="iso-8859-1"?>
<!-- Generator: Adobe Illustrator 19.0.0, SVG Export Plug-In . SVG Version: 6.00 Build 0)  -->
<svg xmlns="http://www.w3.org/2000/svg" xmlns:xlink="http://www.w3.org/1999/xlink" version="1.1" id="Layer_1" x="0px" y="0px" viewBox="0 0 512 512" style="enable-background:new 0 0 512 512;" xml:space="preserve" width="512px" height="512px">
<g>
	<g>
		<path d="M172.522,405.698c-7.549,0-13.69,6.142-13.69,13.689c0,7.549,6.142,13.689,13.69,13.689    c7.548,0,13.689-6.142,13.689-13.689C186.211,411.838,180.07,405.698,172.522,405.698z" fill="#FFFFFF"/>
	</g>
</g>
<g>
	<g>
		<path d="M430.528,25.414h-62.038c0,24.021,0,30.747,0,41.483c0,23.492-19.113,42.604-42.604,42.604H186.114    c-23.492,0-42.604-19.113-42.604-42.604c0-10.742,0-17.45,0-41.483H81.472c-9.288,0-16.818,7.53-16.818,16.818v452.951    c0,9.288,7.53,16.818,16.818,16.818h349.056c9.288,0,16.818-7.53,16.818-16.818V42.231    C447.346,32.942,439.816,25.414,430.528,25.414z M132.431,147.929c-6.568-6.568-6.568-17.216,0-23.783    c6.567-6.568,17.216-6.568,23.783,0l14.723,14.723l14.723-14.723c6.567-6.568,17.216-6.568,23.783,0s6.568,17.216,0,23.783    l-14.723,14.723l14.723,14.723c6.568,6.568,6.568,17.216,0,23.783c-6.567,6.568-17.216,6.569-23.783,0l-14.723-14.723    l-14.723,14.723c-6.567,6.568-17.216,6.569-23.783,0c-6.568-6.568-6.568-17.216,0-23.783l14.723-14.723L132.431,147.929z     M132.431,276.297c-6.568-6.568-6.568-17.216,0-23.783c6.567-6.568,17.216-6.568,23.783,0l14.723,14.723l14.723-14.723    c6.567-6.568,17.216-6.568,23.783,0s6.568,17.216,0,23.783l-14.723,14.723l14.723,14.723c6.568,6.568,6.568,17.216,0,23.783    c-6.567,6.568-17.216,6.569-23.783,0l-14.723-14.723l-14.723,14.723c-6.567,6.568-17.216,6.569-23.783,0    c-6.568-6.568-6.568-17.216,0-23.783l14.723-14.723L132.431,276.297z M172.522,466.712c-26.095,0-47.324-21.23-47.324-47.324    c0-26.094,21.23-47.324,47.324-47.324c26.094,0,47.324,21.23,47.324,47.324C219.846,445.481,198.616,466.712,172.522,466.712z     M379.204,436.205h-113.12c-9.288,0-16.818-7.53-16.818-16.818c0-9.288,7.529-16.818,16.818-16.818h113.12    c9.288,0,16.818,7.53,16.818,16.818C396.022,428.675,388.492,436.205,379.204,436.205z M379.204,307.837h-113.12    c-9.288,0-16.818-7.53-16.818-16.818c0-9.288,7.529-16.818,16.818-16.818h113.12c9.288,0,16.818,7.53,16.818,16.818    C396.022,300.307,388.492,307.837,379.204,307.837z M379.204,179.47h-113.12c-9.288,0-16.818-7.53-16.818-16.818    c0-9.288,7.529-16.818,16.818-16.818h113.12c9.288,0,16.818,7.53,16.818,16.818C396.022,171.94,388.492,179.47,379.204,179.47z" fill="#FFFFFF"/>
	</g>
</g>
<g>
	<g>
		<path d="M325.886,0H186.114c-4.953,0-8.969,4.016-8.969,8.969v57.927c0,4.953,4.016,8.969,8.969,8.969h139.773    c4.953,0,8.969-4.016,8.969-8.969V8.969C334.856,4.016,330.84,0,325.886,0z" fill="#FFFFFF"/>
	</g>
</g>
<g>
</g>
<g>
</g>
<g>
</g>
<g>
</g>
<g>
</g>
<g>
</g>
<g>
</g>
<g>
</g>
<g>
</g>
<g>
</g>
<g>
</g>
<g>
</g>
<g>
</g>
<g>
</g>
<g>
</g>
</svg>
