<?xml version="1.0" encoding="iso-8859-1"?>
<!-- Generator: Adobe Illustrator 16.0.0, SVG Export Plug-In . SVG Version: 6.00 Build 0)  -->
<!DOCTYPE svg PUBLIC "-//W3C//DTD SVG 1.1//EN" "http://www.w3.org/Graphics/SVG/1.1/DTD/svg11.dtd">
<svg xmlns="http://www.w3.org/2000/svg" xmlns:xlink="http://www.w3.org/1999/xlink" version="1.1" id="Capa_1" x="0px" y="0px" width="512px" height="512px" viewBox="0 0 439.299 439.299" style="enable-background:new 0 0 439.299 439.299;" xml:space="preserve">
<g>
	<g>
		<path d="M202.973,113.918h134.71V77.105c0-6.102-4.945-11.051-11.049-11.051H11.051C4.947,66.054,0,71.003,0,77.105v202.207    c0,6.104,4.947,11.051,11.051,11.051h33.288l80.198,79.645c2.114,2.113,4.941,3.238,7.816,3.238c1.423,0,2.859-0.275,4.225-0.842    c4.131-1.711,6.822-5.742,6.822-10.211v-71.83h36.921c-1.172-2.858-1.825-5.984-1.825-9.26V138.395    C178.497,124.898,189.477,113.918,202.973,113.918z" fill="#999999"/>
		<path d="M431.5,133.764H208.778c-4.308,0-7.798,3.493-7.798,7.799v142.706c0,4.307,3.49,7.799,7.798,7.799h119.279v50.693    c0,3.154,1.898,5.999,4.812,7.207c0.965,0.398,1.979,0.594,2.982,0.594c2.029,0,4.023-0.793,5.518-2.285l56.6-56.209H431.5    c4.309,0,7.799-3.492,7.799-7.799V141.563C439.301,137.256,435.809,133.764,431.5,133.764z" fill="#999999"/>
	</g>
</g>
<g>
</g>
<g>
</g>
<g>
</g>
<g>
</g>
<g>
</g>
<g>
</g>
<g>
</g>
<g>
</g>
<g>
</g>
<g>
</g>
<g>
</g>
<g>
</g>
<g>
</g>
<g>
</g>
<g>
</g>
</svg>
