<?xml version="1.0" encoding="utf-8"?>
<!-- Generator: Adobe Illustrator 21.0.2, SVG Export Plug-In . SVG Version: 6.00 Build 0)  -->
<svg version="1.1" id="Capa_1" xmlns="http://www.w3.org/2000/svg" xmlns:xlink="http://www.w3.org/1999/xlink" x="0px" y="0px"
	 viewBox="0 0 512 490" style="enable-background:new 0 0 512 490;" xml:space="preserve">
<style type="text/css">
	.st0{fill:#666666;}
	.st1{display:none;}
	.st2{display:inline;}
</style>
<g>
	<g>
		<path class="st0" d="M301,121h-75V15c0-15.8-21.4-20.8-28.4-6.7l-90,181c-5,10,2.3,21.7,13.4,21.7h75v105c0,7,4.8,13,11.6,14.6
			c6.9,1.6,13.8-1.8,16.9-7.9l90-180C319.4,132.7,312.1,121,301,121z"/>
	</g>
</g>
<g class="st1">
	<g class="st2">
		<path class="st0" d="M337.7-20.4c-7.4-3.7-16.4-0.7-20.1,6.7l-30,61c-3.7,7.4-0.7,16.4,6.7,20.1c7.5,3.7,16.4,0.6,20.1-6.7l30-61
			C348.1-7.7,345.1-16.7,337.7-20.4z"/>
	</g>
</g>
<g class="st1">
	<g class="st2">
		<path class="st0" d="M427.7,40.6c-7.4-3.7-16.4-0.7-20.1,6.7l-30,60c-3.7,7.4-0.7,16.4,6.7,20.1c7.5,3.7,16.4,0.6,20.1-6.7l30-60
			C438.1,53.3,435.1,44.3,427.7,40.6z"/>
	</g>
</g>
<g class="st1">
	<g class="st2">
		<path class="st0" d="M127.7-20.4c-7.4-3.7-16.4-0.7-20.1,6.7l-30,61c-3.7,7.4-0.7,16.4,6.7,20.1c7.5,3.7,16.4,0.6,20.1-6.7l30-61
			C138.1-7.7,135.1-16.7,127.7-20.4z"/>
	</g>
</g>
<g class="st1">
	<g class="st2">
		<path class="st0" d="M67.7,100.6c-7.4-3.7-16.4-0.7-20.1,6.7l-30,60c-3.7,7.4-0.7,16.4,6.7,20.1c7.5,3.7,16.4,0.6,20.1-6.7l30-60
			C78.1,113.3,75.1,104.3,67.7,100.6z"/>
	</g>
</g>
<g>
	<g>
		<path class="st0" d="M121,229c-4.6,0-9-0.9-13.3-2.2L56.8,266C44,276.6,42.4,295.5,53,308.2c10.6,12.8,29.7,14.3,42.2,3.8l70.8-54
			V229L121,229L121,229z"/>
	</g>
</g>
<g>
	<g>
		<path class="st0" d="M485.2,266l-148-113.8l-27.7,55.3L446.8,312c12.7,10.6,31.6,8.9,42.2-3.9C499.6,295.5,498,276.6,485.2,266z"
			/>
	</g>
</g>
<g>
	<g>
		<path class="st0" d="M295.9,224.8l-44.7,89.4c-9.3,18.6-29.9,28.4-50.4,23.7C180.3,333,166,315,166,294v-8.2
			c-4.8,3.7-55.2,42.4-60,45.2v144c0,8.3,6.7,15,15,15c268,0,32.1,0,300,0c8.3,0,15-6.7,15-15V330.9
			C430.9,328,300.6,228.3,295.9,224.8z M316,460h-90v-76c0-24.8,20.2-45,45-45s45,20.2,45,45V460z"/>
	</g>
</g>
</svg>
