<?xml version="1.0" encoding="iso-8859-1"?>
<!-- Generator: Adobe Illustrator 16.0.0, SVG Export Plug-In . SVG Version: 6.00 Build 0)  -->
<!DOCTYPE svg PUBLIC "-//W3C//DTD SVG 1.1//EN" "http://www.w3.org/Graphics/SVG/1.1/DTD/svg11.dtd">
<svg xmlns="http://www.w3.org/2000/svg" xmlns:xlink="http://www.w3.org/1999/xlink" version="1.1" id="Capa_1" x="0px" y="0px" width="512px" height="512px" viewBox="0 0 87.607 87.607" style="enable-background:new 0 0 87.607 87.607;" xml:space="preserve">
<g>
	<g id="Document_1_">
		<g>
			<path d="M74.561,0H13.047c-1.914,0-3.465,1.54-3.465,3.433V84.18c0,1.894,1.551,3.428,3.465,3.428h61.514     c1.914,0,3.465-1.534,3.465-3.428V3.433C78.023,1.54,76.475,0,74.561,0z M71.096,80.746H16.512V6.865h54.583V80.746z      M29.075,24.815h29.459c0.955,0,1.731-0.77,1.731-1.716c0-0.947-0.776-1.717-1.731-1.717H29.075c-0.958,0-1.735,0.77-1.735,1.717     C27.34,24.046,28.117,24.815,29.075,24.815z M29.075,38.29h29.459c0.955,0,1.731-0.765,1.731-1.711     c0-0.952-0.776-1.716-1.731-1.716H29.075c-0.958,0-1.735,0.764-1.735,1.716C27.34,37.525,28.117,38.29,29.075,38.29z      M29.075,51.771h29.459c0.955,0,1.731-0.766,1.731-1.717c0-0.947-0.776-1.717-1.731-1.717H29.075     c-0.958,0-1.735,0.77-1.735,1.717C27.34,51.006,28.117,51.771,29.075,51.771z M29.075,65.25h29.459     c0.955,0,1.731-0.77,1.731-1.717c0-0.945-0.776-1.717-1.731-1.717H29.075c-0.958,0-1.735,0.771-1.735,1.717     C27.34,64.48,28.117,65.25,29.075,65.25z" fill="#FFFFFF"/>
		</g>
	</g>
</g>
<g>
</g>
<g>
</g>
<g>
</g>
<g>
</g>
<g>
</g>
<g>
</g>
<g>
</g>
<g>
</g>
<g>
</g>
<g>
</g>
<g>
</g>
<g>
</g>
<g>
</g>
<g>
</g>
<g>
</g>
</svg>
