<?xml version="1.0" encoding="iso-8859-1"?>
<!-- Generator: Adobe Illustrator 19.0.0, SVG Export Plug-In . SVG Version: 6.00 Build 0)  -->
<svg xmlns="http://www.w3.org/2000/svg" xmlns:xlink="http://www.w3.org/1999/xlink" version="1.1" id="Layer_1" x="0px" y="0px" viewBox="0 0 512 512" style="enable-background:new 0 0 512 512;" xml:space="preserve" width="512px" height="512px">
<g>
	<g>
		<path d="M447.147,0H64.853c-9.425,0-17.067,7.641-17.067,17.067v477.867c0,9.425,7.641,17.067,17.067,17.067h382.293    c9.425,0,17.067-7.641,17.067-17.067V17.067C464.213,7.641,456.572,0,447.147,0z M167.253,91.022h177.493    c9.425,0,17.067,7.641,17.067,17.067c0,9.425-7.641,17.067-17.067,17.067H167.253c-9.425,0-17.067-7.641-17.067-17.067    C150.187,98.664,157.828,91.022,167.253,91.022z M256,459.662c-25.095,0-45.511-20.416-45.511-45.511S230.905,368.64,256,368.64    s45.511,20.416,45.511,45.511S281.095,459.662,256,459.662z M381.156,431.218h-36.409c-9.425,0-17.067-7.641-17.067-17.067    s7.641-17.067,17.067-17.067h36.409c9.425,0,17.067,7.641,17.067,17.067S390.581,431.218,381.156,431.218z M381.156,327.68    H130.844c-9.425,0-17.067-7.641-17.067-17.067s7.641-17.067,17.067-17.067h250.311c9.425,0,17.067,7.641,17.067,17.067    S390.581,327.68,381.156,327.68z M381.156,260.551H130.844c-9.425,0-17.067-7.641-17.067-17.067s7.641-17.067,17.067-17.067    h250.311c9.425,0,17.067,7.641,17.067,17.067S390.581,260.551,381.156,260.551z M381.156,193.422H130.844    c-9.425,0-17.067-7.641-17.067-17.067c0-9.425,7.641-17.067,17.067-17.067h250.311c9.425,0,17.067,7.641,17.067,17.067    C398.222,185.781,390.581,193.422,381.156,193.422z" fill="#999999"/>
	</g>
</g>
<g>
</g>
<g>
</g>
<g>
</g>
<g>
</g>
<g>
</g>
<g>
</g>
<g>
</g>
<g>
</g>
<g>
</g>
<g>
</g>
<g>
</g>
<g>
</g>
<g>
</g>
<g>
</g>
<g>
</g>
</svg>
