<?xml version="1.0" encoding="iso-8859-1"?>
<!-- Generator: Adobe Illustrator 19.0.0, SVG Export Plug-In . SVG Version: 6.00 Build 0)  -->
<svg xmlns="http://www.w3.org/2000/svg" xmlns:xlink="http://www.w3.org/1999/xlink" version="1.1" id="Capa_1" x="0px" y="0px" viewBox="0 0 512 512" style="enable-background:new 0 0 512 512;" xml:space="preserve" width="512px" height="512px">
<g>
	<g>
		<path d="M95.365,241c10.798,39.752,70.439,39.897,81.268,0H95.365z" fill="#FFFFFF"/>
	</g>
</g>
<g>
	<g>
		<path d="M226,61h15V15c0-8.286-6.716-15-15-15H46C21.147,0,0,21.147,0,46v420c0,24.853,21.147,46,46,46h180    c8.284,0,15-6.716,15-15v-46h-15c-8.291,0-15-6.709-15-15c0-8.291,6.709-15,15-15h15V91h-15c-8.291,0-15-6.709-15-15    S217.709,61,226,61z M151,299.319V361h15c8.291,0,15,6.709,15,15c0,8.291-6.709,15-15,15h-60c-8.291,0-15-6.709-15-15    c0-8.291,6.709-15,15-15h15v-61.681c-36.617-7.43-58.169-37.751-57.2-73.163c0-0.055-0.031-0.101-0.031-0.156    c0-0.156,0.082-0.284,0.087-0.438c0.264-7.535,1.52-15.154,3.999-22.604l23.921-71.704C93.812,125.131,99.54,121,106,121h60    c6.46,0,12.187,4.131,14.224,10.254l23.906,71.704c2.477,7.432,3.734,15.033,4.003,22.549c0.005,0.174,0.099,0.317,0.099,0.493    c0,0.062-0.035,0.112-0.035,0.174C209.166,261.455,187.724,291.867,151,299.319z" fill="#FFFFFF"/>
	</g>
</g>
<g>
	<g>
		<polygon points="155.189,151 116.811,151 96.801,211 175.185,211   " fill="#FFFFFF"/>
	</g>
</g>
<g>
	<g>
		<path d="M407,121h-61c-8.276,0-15,6.724-15,15s6.724,15,15,15h61c8.276,0,15-6.724,15-15S415.276,121,407,121z" fill="#FFFFFF"/>
	</g>
</g>
<g>
	<g>
		<path d="M467,0H286c-8.284,0-15,6.714-15,15v46h15c8.291,0,15,6.709,15,15s-6.709,15-15,15h-15v330h15c8.291,0,15,6.709,15,15    c0,8.291-6.709,15-15,15h-15v46c0,8.284,6.716,15,15,15h181c24.853,0,45-21.147,45-46V46C512,21.147,491.853,0,467,0z M437,421    H316c-8.291,0-15-6.709-15-15c0-8.291,6.709-15,15-15h121c8.291,0,15,6.709,15,15C452,414.291,445.291,421,437,421z M437,361H316    c-8.291,0-15-6.709-15-15c0-8.291,6.709-15,15-15h121c8.291,0,15,6.709,15,15C452,354.291,445.291,361,437,361z M437,301H316    c-8.291,0-15-6.709-15-15c0-8.291,6.709-15,15-15h121c8.291,0,15,6.709,15,15C452,294.291,445.291,301,437,301z M437,241H316    c-8.291,0-15-6.709-15-15s6.709-15,15-15h121c8.291,0,15,6.709,15,15S445.291,241,437,241z M407,181h-61    c-24.814,0-45-20.186-45-45c0-24.814,20.186-45,45-45h61c24.814,0,45,20.186,45,45C452,160.814,431.814,181,407,181z" fill="#FFFFFF"/>
	</g>
</g>
<g>
</g>
<g>
</g>
<g>
</g>
<g>
</g>
<g>
</g>
<g>
</g>
<g>
</g>
<g>
</g>
<g>
</g>
<g>
</g>
<g>
</g>
<g>
</g>
<g>
</g>
<g>
</g>
<g>
</g>
</svg>
