<?xml version="1.0" encoding="iso-8859-1"?>
<!-- Generator: Adobe Illustrator 19.0.0, SVG Export Plug-In . SVG Version: 6.00 Build 0)  -->
<svg xmlns="http://www.w3.org/2000/svg" xmlns:xlink="http://www.w3.org/1999/xlink" version="1.1" id="Layer_1" x="0px" y="0px" viewBox="0 0 297 297" style="enable-background:new 0 0 297 297;" xml:space="preserve" width="512px" height="512px">
<g>
	<g>
		<g>
			<path d="M263.189,16.307H33.81C15.167,16.308,0,31.475,0,50.118v46.246h47.481l17.007-28.736c1.601-2.706,4.656-4.209,7.777-3.82     c3.121,0.387,5.717,2.588,6.609,5.604l14.154,47.836l10.063-17.004c1.424-2.405,4.01-3.88,6.805-3.88h72.699l17.006-28.736     c1.601-2.706,4.657-4.209,7.777-3.82c3.121,0.387,5.717,2.588,6.609,5.604l14.155,47.836l10.063-17.004     c1.424-2.405,4.01-3.88,6.805-3.88H297V50.118C297,31.474,281.833,16.307,263.189,16.307z" fill="#FFFFFF"/>
			<path d="M232.512,140.914c-1.434,2.424-4.034,3.88-6.803,3.88c-0.323,0-0.649-0.019-0.975-0.06     c-3.121-0.387-5.717-2.588-6.609-5.604l-14.154-47.836l-10.063,17.004c-1.424,2.405-4.01,3.88-6.805,3.88h-72.699l-17.006,28.736     c-1.601,2.706-4.659,4.202-7.777,3.82c-3.121-0.387-5.717-2.588-6.609-5.604L68.857,91.294l-10.063,17.004     c-1.424,2.405-4.01,3.88-6.805,3.88H0v52.877h297v-52.877h-47.481L232.512,140.914z" fill="#FFFFFF"/>
			<path d="M0,214.266c0,15.401,10.353,28.419,24.462,32.486v24.057c0,5.458,4.425,9.884,9.884,9.884s9.884-4.425,9.884-9.884     v-22.732h208.542v22.732c0,5.458,4.425,9.884,9.884,9.884c5.458,0,9.884-4.425,9.884-9.884v-24.057     c14.107-4.067,24.46-17.086,24.46-32.486v-33.397H0V214.266z M240.759,199.983c1.463-1.473,3.508-2.313,5.585-2.313     c2.085,0,4.121,0.84,5.594,2.313c1.472,1.473,2.313,3.508,2.313,5.594c0,2.085-0.841,4.122-2.313,5.584     c-1.473,1.483-3.509,2.323-5.594,2.323c-2.076,0-4.121-0.841-5.585-2.323c-1.473-1.462-2.322-3.499-2.322-5.584     C238.437,203.491,239.286,201.456,240.759,199.983z M208.135,199.983c1.483-1.473,3.518-2.313,5.594-2.313     c2.085,0,4.121,0.84,5.594,2.313c1.472,1.473,2.313,3.508,2.313,5.594c-0.001,2.085-0.841,4.122-2.313,5.584     c-1.473,1.483-3.509,2.323-5.594,2.323c-2.076,0-4.112-0.841-5.594-2.323c-1.463-1.462-2.313-3.499-2.313-5.584     C205.822,203.491,206.671,201.456,208.135,199.983z" fill="#FFFFFF"/>
		</g>
	</g>
</g>
<g>
</g>
<g>
</g>
<g>
</g>
<g>
</g>
<g>
</g>
<g>
</g>
<g>
</g>
<g>
</g>
<g>
</g>
<g>
</g>
<g>
</g>
<g>
</g>
<g>
</g>
<g>
</g>
<g>
</g>
</svg>
