<?xml version="1.0" encoding="iso-8859-1"?>
<!-- Generator: Adobe Illustrator 19.0.0, SVG Export Plug-In . SVG Version: 6.00 Build 0)  -->
<svg xmlns="http://www.w3.org/2000/svg" xmlns:xlink="http://www.w3.org/1999/xlink" version="1.1" id="Capa_1" x="0px" y="0px" viewBox="0 0 479.744 479.744" style="enable-background:new 0 0 479.744 479.744;" xml:space="preserve" width="512px" height="512px">
<g>
	<g>
		<path d="M474.624,291.018l-42.496-37.888l-64.512-89.088c-3.072-4.096-7.68-6.144-12.288-6.144h-33.792l-12.288-39.936    c-2.048-6.656-7.68-11.264-14.848-11.264H256c-7.168,0-13.824,5.12-14.848,12.288l-7.68,38.912H17.92    c-8.704,0-15.36,6.656-15.36,15.36L0,389.834c0,8.704,6.656,15.36,15.36,15.36h39.936c8.192,32.256,40.448,52.224,73.216,44.544    c22.016-5.12,38.912-22.528,44.544-44.544h109.056c8.192,32.256,40.448,52.224,73.216,44.544    c22.016-5.12,38.912-22.528,44.544-44.544h64.512c8.704,0,15.36-6.656,15.36-15.36v-87.552    C479.744,297.674,477.696,293.578,474.624,291.018z M114.176,420.554c-16.384,0-29.696-13.312-29.696-29.696    c0-16.384,13.312-29.696,29.696-29.696s29.696,13.312,29.696,29.696C143.872,407.242,130.56,420.554,114.176,420.554z     M189.44,280.778h-16.384v16.384c0,8.704-6.656,15.36-15.36,15.36c-8.704,0-15.36-6.656-15.36-15.36v-16.384h-16.384    c-8.704,0-15.36-6.656-15.36-15.36c0-8.704,6.656-15.36,15.36-15.36h16.384v-16.384c0-8.704,6.656-15.36,15.36-15.36    c8.704,0,15.36,6.656,15.36,15.36v16.384h16.384c8.704,0,15.36,6.656,15.36,15.36C204.8,274.122,197.632,280.778,189.44,280.778z     M340.48,420.554c-16.384,0-29.696-13.312-29.696-29.696s13.312-29.696,29.696-29.696c16.384,0,29.696,13.312,29.696,29.696    C370.176,407.242,356.864,420.554,340.48,420.554z M291.84,248.01v-59.392h55.296l43.52,59.392H291.84z" fill="#666666"/>
	</g>
</g>
<g>
	<g>
		<rect x="260.096" y="28.362" width="30.72" height="64" fill="#666666"/>
	</g>
</g>
<g>
	<g>
		<rect x="311.625" y="69.347" transform="matrix(0.7071 -0.7071 0.7071 0.7071 41.0485 268.5134)" width="66.047" height="30.72" fill="#666666"/>
	</g>
</g>
<g>
	<g>
		<rect x="190.955" y="51.919" transform="matrix(0.7071 -0.7071 0.7071 0.7071 0.365 170.7659)" width="30.72" height="66.047" fill="#666666"/>
	</g>
</g>
<g>
</g>
<g>
</g>
<g>
</g>
<g>
</g>
<g>
</g>
<g>
</g>
<g>
</g>
<g>
</g>
<g>
</g>
<g>
</g>
<g>
</g>
<g>
</g>
<g>
</g>
<g>
</g>
<g>
</g>
</svg>
