<?xml version="1.0" encoding="iso-8859-1"?>
<!-- Generator: Adobe Illustrator 19.0.0, SVG Export Plug-In . SVG Version: 6.00 Build 0)  -->
<svg xmlns="http://www.w3.org/2000/svg" xmlns:xlink="http://www.w3.org/1999/xlink" version="1.1" id="Layer_1" x="0px" y="0px" viewBox="0 0 330.001 330.001" style="enable-background:new 0 0 330.001 330.001;" xml:space="preserve" width="512px" height="512px">
<g id="XMLID_239_">
	<path id="XMLID_240_" d="M315,150h-5V55c0-30.327-24.673-55-55-55c-30.327,0-55,24.673-55,55v15h-5c-8.284,0-15,6.716-15,15   s6.716,15,15,15h40c8.284,0,15-6.716,15-15s-6.716-15-15-15h-5V55c0-13.785,11.215-25,25-25c13.785,0,25,11.215,25,25v95H35H15   c-8.284,0-15,6.716-15,15s6.716,15,15,15h5v65c0,30.678,21.369,56.442,50,63.233v6.768c0,8.284,6.716,15,15,15   c8.284,0,15-6.716,15-15V310h130v5.001c0,8.284,6.716,15,15,15c8.284,0,15-6.716,15-15v-6.768c28.631-6.792,50-32.556,50-63.233   v-65h5c8.284,0,15-6.716,15-15S323.285,150,315,150z" fill="#999999"/>
</g>
<g>
</g>
<g>
</g>
<g>
</g>
<g>
</g>
<g>
</g>
<g>
</g>
<g>
</g>
<g>
</g>
<g>
</g>
<g>
</g>
<g>
</g>
<g>
</g>
<g>
</g>
<g>
</g>
<g>
</g>
</svg>
