<?xml version="1.0" encoding="iso-8859-1"?>
<!-- Generator: Adobe Illustrator 19.0.0, SVG Export Plug-In . SVG Version: 6.00 Build 0)  -->
<svg xmlns="http://www.w3.org/2000/svg" xmlns:xlink="http://www.w3.org/1999/xlink" version="1.1" id="Capa_1" x="0px" y="0px" viewBox="0 0 390 390" style="enable-background:new 0 0 390 390;" xml:space="preserve" width="512px" height="512px">
<g id="XMLID_8_">
	<path id="XMLID_842_" d="M57.5,0v30h-25v30h25v70h-25v30h25v70h-25v30h25v70h-25v30h25v30h300V0H57.5z M232.221,135L207.5,122.002   L182.779,135l4.721-27.529l-20-19.494l27.639-4.017L207.5,58.915l12.361,25.045l27.639,4.017l-20,19.494L232.221,135z M297.5,165   v30h-180v-30H297.5z M297.5,225v30h-180v-30H297.5z M297.5,285v30h-180v-30H297.5z" fill="#999999"/>
</g>
<g>
</g>
<g>
</g>
<g>
</g>
<g>
</g>
<g>
</g>
<g>
</g>
<g>
</g>
<g>
</g>
<g>
</g>
<g>
</g>
<g>
</g>
<g>
</g>
<g>
</g>
<g>
</g>
<g>
</g>
</svg>
