<?xml version="1.0" encoding="iso-8859-1"?>
<!-- Generator: Adobe Illustrator 19.0.0, SVG Export Plug-In . SVG Version: 6.00 Build 0)  -->
<svg xmlns="http://www.w3.org/2000/svg" xmlns:xlink="http://www.w3.org/1999/xlink" version="1.1" id="Layer_1" x="0px" y="0px" viewBox="0 0 512 512" style="enable-background:new 0 0 512 512;" xml:space="preserve" width="512px" height="512px">
<g>
	<g>
		<path d="M157.25,99.858c-7.063,1.206-12.23,7.329-12.23,14.496v26.341H16.695C7.475,140.695,0,148.17,0,157.39    s7.475,16.695,16.695,16.695H145.02v26.34c0,7.165,5.165,13.289,12.23,14.496l86.894,14.84V85.017L157.25,99.858z" fill="#666666"/>
	</g>
</g>
<g>
	<g>
		<path d="M439.629,85.017h-170.21V229.76h53.824v40.284c0,8.606,6.976,15.582,15.582,15.582h12.142l-7.495,84.848    c-2.681,30.356,21.264,56.509,51.738,56.509c28.685,0,51.939-23.254,51.939-51.939V229.372    C483.583,225.611,512,194.82,512,157.389C512,117.419,479.599,85.017,439.629,85.017z M327.963,157.39    c0,9.22-7.475,16.695-16.695,16.695s-16.695-7.475-16.695-16.695v-33.019c0-9.22,7.475-16.695,16.695-16.695    s16.695,7.475,16.695,16.695V157.39z M385.282,157.39c0,9.22-7.475,16.695-16.695,16.695c-9.22,0-16.695-7.475-16.695-16.695    v-33.019c0-9.22,7.475-16.695,16.695-16.695c9.22,0,16.695,7.475,16.695,16.695V157.39z M442.601,157.39    c0,9.22-7.475,16.695-16.695,16.695s-16.695-7.475-16.695-16.695v-33.019c0-9.22,7.475-16.695,16.695-16.695    s16.695,7.475,16.695,16.695V157.39z" fill="#666666"/>
	</g>
</g>
<g>
</g>
<g>
</g>
<g>
</g>
<g>
</g>
<g>
</g>
<g>
</g>
<g>
</g>
<g>
</g>
<g>
</g>
<g>
</g>
<g>
</g>
<g>
</g>
<g>
</g>
<g>
</g>
<g>
</g>
</svg>
