<?xml version="1.0" encoding="iso-8859-1"?>
<!-- Generator: Adobe Illustrator 19.0.0, SVG Export Plug-In . SVG Version: 6.00 Build 0)  -->
<svg xmlns="http://www.w3.org/2000/svg" xmlns:xlink="http://www.w3.org/1999/xlink" version="1.1" id="Capa_1" x="0px" y="0px" viewBox="0 0 512.008 512.008" style="enable-background:new 0 0 512.008 512.008;" xml:space="preserve" width="512px" height="512px">
<g>
	<g>
		<path d="M114.759,300.142H0v17.655h79.448c4.873,0,8.828,3.955,8.828,8.828c0,4.873-3.955,8.828-8.828,8.828H0v17.655h61.793    c4.873,0,8.828,3.955,8.828,8.828c0,4.873-3.955,8.828-8.828,8.828H0v17.655h44.138c4.873,0,8.828,3.955,8.828,8.828    c0,4.873-3.955,8.828-8.828,8.828H0v17.655h114.759c4.864,0,8.828-3.964,8.828-8.828V308.97    C123.586,304.106,119.623,300.142,114.759,300.142z" fill="#666666"/>
	</g>
</g>
<g>
	<g>
		<path d="M473.768,0.004H232.439c-21.08,0-38.232,17.152-38.232,38.232v32.388h-8.828h-26.483v35.31    c0,4.873-3.955,8.828-8.828,8.828s-8.828-3.955-8.828-8.828v-35.31h-26.483v35.31c0,4.873-3.955,8.828-8.828,8.828    c-4.873,0-8.828-3.955-8.828-8.828v-35.31h-26.48v35.31c0,4.873-3.955,8.828-8.828,8.828c-4.873,0-8.828-3.955-8.828-8.828v-35.31    h-35.31c-4.873,0-8.828,3.955-8.828,8.828v88.276c0,4.873,3.955,8.828,8.828,8.828H35.31v35.337    C15.713,212.643,0,228.824,0,248.607v33.88h114.759c14.601,0,26.483,11.882,26.483,26.483v105.931    c0,14.601-11.882,26.483-26.483,26.483H0v33.88c0,20.259,16.481,36.74,36.74,36.74h226.666h210.37    c21.08,0,38.232-17.152,38.232-38.232V38.237C512,17.156,494.848,0.004,473.768,0.004z M194.206,114.763    c-4.873,0-8.828-3.955-8.828-8.828V88.28h17.655v17.655h0.001C203.034,110.808,199.079,114.763,194.206,114.763z M282.483,300.142    h-44.138c-4.864,0-8.828,3.964-8.828,8.828v105.931c0,4.864,3.964,8.828,8.828,8.828h44.138v17.655h-44.138    c-14.61,0-26.483-11.882-26.483-26.483V308.97c0-14.601,11.882-26.483,26.483-26.483h44.138V300.142z M229.517,105.935V88.28    h17.655v17.655c0,4.873-3.955,8.828-8.828,8.828C233.472,114.763,229.517,110.808,229.517,105.935z M494.346,473.772    L494.346,473.772c-0.001,11.343-9.235,20.577-20.578,20.577c0,0-178.971,0-178.979,0c1.333,0,3.681-8.316,3.964-9.348    c2.225-8.148,1.386-17.178,1.386-25.565c0-7.751,0-15.501,0-23.243c0-1.209,0-2.419,0-3.628V291.324v-42.708    c0-19.783-15.713-35.955-35.31-36.714v-35.346h17.655c4.873,0,8.828-3.955,8.828-8.828V79.453c0-4.873-3.955-8.828-8.828-8.828    h-44.138h-26.483V38.237c0-11.343,9.234-20.577,20.577-20.577h241.329c11.343,0,20.577,9.234,20.577,20.577V473.772z" fill="#666666"/>
	</g>
</g>
<g>
	<g>
		<path d="M344.276,35.315c-4.873,0-8.828,3.955-8.828,8.828v423.724c0,4.873,3.955,8.828,8.828,8.828s8.828-3.955,8.828-8.828    V44.142C353.103,39.27,349.149,35.315,344.276,35.315z" fill="#666666"/>
	</g>
</g>
<g>
	<g>
		<path d="M423.724,70.625c-19.474,0-35.31,15.837-35.31,35.31s15.837,35.31,35.31,35.31c19.473,0,35.31-15.837,35.31-35.31    S443.189,70.625,423.724,70.625z" fill="#666666"/>
	</g>
</g>
<g>
	<g>
		<path d="M423.724,167.729c-19.474,0-35.31,15.837-35.31,35.31c0,19.473,15.837,35.31,35.31,35.31    c19.473,0,35.31-15.837,35.31-35.31C459.034,183.566,443.189,167.729,423.724,167.729z" fill="#666666"/>
	</g>
</g>
<g>
	<g>
		<path d="M423.724,264.832c-19.474,0-35.31,15.837-35.31,35.31c0,19.473,15.837,35.31,35.31,35.31    c19.473,0,35.31-15.837,35.31-35.31C459.034,280.669,443.189,264.832,423.724,264.832z" fill="#666666"/>
	</g>
</g>
<g>
	<g>
		<path d="M423.724,361.935c-19.474,0-35.31,15.837-35.31,35.31c0,19.474,15.837,35.31,35.31,35.31    c19.473,0,35.31-15.837,35.31-35.31C459.034,377.772,443.189,361.935,423.724,361.935z" fill="#666666"/>
	</g>
</g>
<g>
</g>
<g>
</g>
<g>
</g>
<g>
</g>
<g>
</g>
<g>
</g>
<g>
</g>
<g>
</g>
<g>
</g>
<g>
</g>
<g>
</g>
<g>
</g>
<g>
</g>
<g>
</g>
<g>
</g>
</svg>
