<?xml version="1.0" encoding="iso-8859-1"?>
<!-- Generator: Adobe Illustrator 19.0.0, SVG Export Plug-In . SVG Version: 6.00 Build 0)  -->
<svg xmlns="http://www.w3.org/2000/svg" xmlns:xlink="http://www.w3.org/1999/xlink" version="1.1" id="Layer_1" x="0px" y="0px" viewBox="0 0 512 512" style="enable-background:new 0 0 512 512;" xml:space="preserve" width="512px" height="512px">
<g>
	<g>
		<path d="M328.348,66.783H303.01C296.095,47.391,277.737,33.391,256,33.391h-19.554C229.554,13.956,210.99,0,189.217,0    c-21.772,0-40.337,13.956-47.229,33.391h-19.554c-21.737,0-40.095,14-47.01,33.391H50.087C22.468,66.783,0,89.25,0,116.87v345.043    C0,489.532,22.468,512,50.087,512h278.261c27.619,0,50.087-22.468,50.087-50.087V116.87    C378.435,89.251,355.967,66.783,328.348,66.783z M105.739,83.478c0-9.206,7.49-16.696,16.696-16.696h33.391    c9.217,0,16.696-7.473,16.696-16.696c0-9.206,7.49-16.696,16.696-16.696s16.696,7.49,16.696,16.696    c0,9.223,7.479,16.696,16.696,16.696H256c9.206,0,16.696,7.49,16.696,16.696v16.696H105.739V83.478z M71.674,227.501    c6.521-6.521,17.087-6.521,23.609,0l21.586,21.586l54.979-54.979c6.521-6.521,17.087-6.521,23.609,0    c6.521,6.516,6.521,17.092,0,23.609l-66.783,66.783c-6.521,6.521-17.087,6.521-23.609,0l-33.391-33.391    C65.152,244.592,65.152,234.016,71.674,227.501z M128.674,418.065c-6.521,6.521-17.087,6.521-23.609,0l-33.391-33.391    c-6.522-6.516-6.522-17.092,0-23.608c6.521-6.521,17.087-6.521,23.609,0l21.586,21.586l54.979-54.979    c6.521-6.521,17.087-6.521,23.609,0c6.521,6.516,6.521,17.092,0,23.609L128.674,418.065z M294.957,422.957h-77.913    c-9.217,0-16.696-7.473-16.696-16.696s7.479-16.696,16.696-16.696h77.913c9.217,0,16.696,7.473,16.696,16.696    S304.174,422.957,294.957,422.957z M294.957,356.174h-44.522c-9.217,0-16.696-7.473-16.696-16.696    c0-9.223,7.479-16.696,16.696-16.696h44.522c9.217,0,16.696,7.473,16.696,16.696C311.652,348.701,304.174,356.174,294.957,356.174    z M294.957,289.391h-77.913c-9.217,0-16.696-7.473-16.696-16.696c0-9.223,7.479-16.696,16.696-16.696h77.913    c9.217,0,16.696,7.473,16.696,16.696C311.652,281.918,304.174,289.391,294.957,289.391z M294.957,222.609h-44.522    c-9.217,0-16.696-7.473-16.696-16.696c0-9.223,7.479-16.696,16.696-16.696h44.522c9.217,0,16.696,7.473,16.696,16.696    C311.652,215.136,304.174,222.609,294.957,222.609z" fill="#999999"/>
	</g>
</g>
<g>
	<g>
		<path d="M411.826,411.826v8.815c0,7.728,1.826,15.472,5.282,22.397l29.87,59.734c6.142,12.296,23.739,12.271,29.87,0l29.87-59.739    c3.456-6.919,5.283-14.663,5.283-22.391v-8.815H411.826z" fill="#999999"/>
	</g>
</g>
<g>
	<g>
		<path d="M461.913,77.913c-27.619,0-50.087,22.468-50.087,50.087v250.435H512V128C512,100.381,489.532,77.913,461.913,77.913z     M478.609,211.478h-33.391V128c0-9.206,7.49-16.696,16.696-16.696s16.696,7.49,16.696,16.696V211.478z" fill="#999999"/>
	</g>
</g>
<g>
</g>
<g>
</g>
<g>
</g>
<g>
</g>
<g>
</g>
<g>
</g>
<g>
</g>
<g>
</g>
<g>
</g>
<g>
</g>
<g>
</g>
<g>
</g>
<g>
</g>
<g>
</g>
<g>
</g>
</svg>
