<?xml version="1.0" encoding="iso-8859-1"?>
<!-- Generator: Adobe Illustrator 19.0.0, SVG Export Plug-In . SVG Version: 6.00 Build 0)  -->
<svg xmlns="http://www.w3.org/2000/svg" xmlns:xlink="http://www.w3.org/1999/xlink" version="1.1" id="Layer_1" x="0px" y="0px" viewBox="0 0 512 512" style="enable-background:new 0 0 512 512;" xml:space="preserve" width="512px" height="512px">
<g>
	<g>
		<path d="M372.202,453.888c-0.917-1.813-2.304-3.307-3.989-4.331c44.224-42.133,69.12-99.669,69.12-161.557    c0-79.808-42.923-153.515-112.043-193.557C316.692,76.523,298.516,64,277.332,64c-4.203,0-8.235,0.597-12.16,1.536    c-2.923-9.749-10.304-17.493-19.84-20.907V10.667C245.332,4.779,240.554,0,234.666,0h-42.667c-5.888,0-10.667,4.779-10.667,10.667    v33.963c-12.395,4.416-21.333,16.149-21.333,30.037v170.667c0,13.888,8.939,25.621,21.333,30.037V352    c0,5.888,4.779,10.667,10.667,10.667h42.667c5.888,0,10.667-4.779,10.667-10.667v-76.629    c12.395-4.416,21.333-16.149,21.333-30.037v-75.755c3.456,0.704,7.019,1.088,10.667,1.088c11.797,0,22.592-3.968,31.424-10.475    c40.448,30.165,64.576,77.205,64.576,127.808c0,31.659-9.365,61.141-25.301,85.995l-40,10.005H149.332    c-5.888,0-10.667,4.779-10.667,10.667s4.779,10.667,10.667,10.667h160c0,0,0,0,0.021,0c0.853,0,1.707-0.107,2.56-0.32l14.059-3.52    C297.044,430.208,257.236,448,213.332,448H106.666c-4.032,0-7.723,2.283-9.536,5.888l-21.333,42.667    c-1.664,3.307-1.472,7.232,0.469,10.368c1.941,3.136,5.376,5.077,9.067,5.077h298.667c3.691,0,7.125-1.92,9.067-5.056    c1.941-3.136,2.133-7.083,0.469-10.368L372.202,453.888z M307.114,128.832c-0.043,0.085-0.043,0.171-0.085,0.256    c-1.493,3.669-3.648,7.104-6.464,10.091c-0.021,0.021-0.021,0.043-0.043,0.064c-5.845,6.187-14.037,10.091-23.189,10.091    c-5.803,0-11.2-1.664-15.893-4.395c-0.021-0.021-0.043-0.064-0.064-0.085c-4.821-2.816-8.64-6.677-11.392-11.157    c-0.277-0.469-0.533-0.96-0.789-1.451c-0.917-1.707-1.643-3.52-2.24-5.376c-0.213-0.661-0.448-1.301-0.619-1.984    c-0.597-2.432-1.003-4.949-1.003-7.552c0-2.603,0.405-5.099,1.003-7.552c0.171-0.683,0.405-1.323,0.619-1.984    c0.597-1.856,1.323-3.669,2.24-5.376c0.256-0.491,0.512-0.981,0.789-1.451c2.731-4.48,6.571-8.363,11.392-11.157    c0.021-0.021,0.043-0.064,0.064-0.085c4.693-2.709,10.091-4.395,15.893-4.395c13.483,0,25.003,8.405,29.696,20.245v0.021    c1.536,3.904,2.304,7.851,2.304,11.733C309.332,121.301,308.543,125.184,307.114,128.832z" fill="#999999"/>
	</g>
</g>
<g>
</g>
<g>
</g>
<g>
</g>
<g>
</g>
<g>
</g>
<g>
</g>
<g>
</g>
<g>
</g>
<g>
</g>
<g>
</g>
<g>
</g>
<g>
</g>
<g>
</g>
<g>
</g>
<g>
</g>
</svg>
