<?xml version="1.0" encoding="iso-8859-1"?>
<!-- Generator: Adobe Illustrator 19.0.0, SVG Export Plug-In . SVG Version: 6.00 Build 0)  -->
<svg xmlns="http://www.w3.org/2000/svg" xmlns:xlink="http://www.w3.org/1999/xlink" version="1.1" id="Layer_1" x="0px" y="0px" viewBox="0 0 512 512" style="enable-background:new 0 0 512 512;" xml:space="preserve" width="512px" height="512px">
<g>
	<g>
		<path d="M473.043,166.957c0-22.448-11.477-42.803-29.41-54.968c-9.922-1.122-20.313,1.815-27.595,9.098    c-6.527,6.516-17.097,6.511-23.614-0.006c-6.516-6.521-6.516-17.097,0.006-23.614c11.709-11.699,27.008-18.443,43.395-19.368    c-9.144-25.993-33.874-44.708-62.956-44.708c-2.951,0-5.897,0.201-8.815,0.598C352.43,13.391,330.424,0,306.087,0    c-12.178,0-23.565,3.325-33.391,9.055v159.585c38.058,7.756,66.783,41.48,66.783,81.795c0,9.223-7.473,16.696-16.696,16.696    c-9.223,0-16.696-7.473-16.696-16.696c0-21.737-14-40.096-33.391-47.01v163.88h-33.391v-163.88    c-19.391,6.914-33.391,25.273-33.391,47.01c0,9.223-7.473,16.696-16.696,16.696s-16.696-7.473-16.696-16.696    c0-40.316,28.724-74.04,66.783-81.795V9.055C229.478,3.325,218.091,0,205.913,0c-24.337,0-46.343,13.391-57.967,33.989    c-2.918-0.396-5.865-0.598-8.815-0.598c-29.082,0-53.812,18.715-62.955,44.709c16.387,0.924,31.686,7.669,43.395,19.368    c6.521,6.516,6.521,17.092,0.006,23.614c-6.521,6.521-17.092,6.516-23.614,0.006c-7.283-7.283-17.672-10.223-27.593-9.1    c-17.934,12.163-29.412,32.52-29.412,54.969c0,11.766,3.179,23.26,9.109,33.391c-5.93,10.131-9.109,21.625-9.109,33.391    c0,14.087,4.595,27.317,12.368,38.281C62.993,262.056,78.096,256,94.609,256c9.223,0,16.696,7.473,16.696,16.696    c0,9.223-7.473,16.696-16.696,16.696c-8.5,0-16.184,3.291-22.085,8.54c-0.034,0.865-0.176,1.723-0.176,2.59    c0,36.826,29.956,66.783,66.783,66.783c2.951,0,5.897-0.201,8.815-0.598c5.88,10.418,14.426,18.97,24.576,24.901v36.914    C172.522,474.626,209.896,512,256,512s83.478-37.374,83.478-83.478v-36.914c10.15-5.93,18.696-14.483,24.576-24.901    c2.918,0.396,5.865,0.598,8.815,0.598c36.826,0,66.783-29.956,66.783-66.783c0-0.867-0.141-1.725-0.176-2.59    c-5.901-5.249-13.585-8.54-22.085-8.54c-9.223,0-16.696-7.473-16.696-16.696c0-9.223,7.473-16.696,16.696-16.696    c16.513,0,31.616,6.056,43.284,16.02c7.773-10.963,12.368-24.194,12.368-38.281c0-11.766-3.179-23.26-9.109-33.391    C469.865,190.217,473.043,178.723,473.043,166.957z M306.087,434.087H205.913v-33.391h100.174V434.087z" fill="#FFFFFF"/>
	</g>
</g>
<g>
</g>
<g>
</g>
<g>
</g>
<g>
</g>
<g>
</g>
<g>
</g>
<g>
</g>
<g>
</g>
<g>
</g>
<g>
</g>
<g>
</g>
<g>
</g>
<g>
</g>
<g>
</g>
<g>
</g>
</svg>
