<?xml version="1.0" encoding="iso-8859-1"?>
<!-- Generator: Adobe Illustrator 19.0.0, SVG Export Plug-In . SVG Version: 6.00 Build 0)  -->
<svg xmlns="http://www.w3.org/2000/svg" xmlns:xlink="http://www.w3.org/1999/xlink" version="1.1" id="Capa_1" x="0px" y="0px" viewBox="0 0 511.999 511.999" style="enable-background:new 0 0 511.999 511.999;" xml:space="preserve" width="512px" height="512px">
<g>
	<g>
		<path d="M365.115,319.587c-26.02-12.123-42.715-30.523-52.411-57.692c-6.904-19.344-10.023-42.117-12.127-66.576    c7.613,5.724,15.988,9.996,24.799,12.527c6.51,1.87,13.336,2.795,20.31,2.795c12.469,0,25.404-2.96,37.796-8.775    c13.654-6.408,29.65-18.147,33.592-31.877c3.847-13.394-0.295-31.03-11.082-47.177c-11.323-16.95-27.759-29.214-46.279-34.533    c-13.847-3.976-29.125-3.629-44.165,0.841c1.281-15.609-1.487-32.412-9.741-47.316c-9.185-16.587-25.408-29.646-45.679-36.769    c-14.279-5.018-34.075-7.868-46.807-0.817c-12.857,7.12-20.747,25.396-23.842,40.125c-4.34,20.651-1.676,41.152,7.502,57.727    c8.372,15.117,22.575,27.349,40.313,34.875c-25.797,13.258-48.46,32.335-65.893,55.859c-26.048,35.149-39.23,78.57-37.115,122.268    l0.277,5.736c-45.621,7.521-80.533,47.232-80.533,94.95c0,53.066,43.173,96.239,96.239,96.239    c53.066,0,96.239-43.173,96.239-96.239c0-48.185-35.596-88.21-81.872-95.167l-0.338-6.972    c-1.779-36.785,9.316-73.337,31.243-102.924c18.314-24.712,43.477-43.603,72.078-54.404c0.267,3.819,0.528,7.625,0.783,11.394    c4.24,62.636,8.291,122.385,53.866,160.299c-33.446,15.095-56.781,48.759-56.781,87.773c0,53.066,43.173,96.239,96.239,96.239    c53.066,0,96.24-43.173,96.24-96.239C457.967,363.828,416.619,321.379,365.115,319.587z" fill="#999999"/>
	</g>
</g>
<g>
</g>
<g>
</g>
<g>
</g>
<g>
</g>
<g>
</g>
<g>
</g>
<g>
</g>
<g>
</g>
<g>
</g>
<g>
</g>
<g>
</g>
<g>
</g>
<g>
</g>
<g>
</g>
<g>
</g>
</svg>
