<?xml version="1.0"?>
<svg xmlns="http://www.w3.org/2000/svg" xmlns:xlink="http://www.w3.org/1999/xlink" version="1.1" id="Capa_1" x="0px" y="0px" viewBox="0 0 314.818 314.818" style="enable-background:new 0 0 314.818 314.818;" xml:space="preserve" width="512px" height="512px" class=""><g><g>
	<polygon points="36.461,129.63 15.171,110.715 36.461,97.69  " data-original="#010002" class="active-path" data-old_color="#BFBFBF" fill="#C1C1C1"/>
	<polygon points="114.913,215.261 11.149,307.497 11.149,123.108  " data-original="#010002" class="active-path" data-old_color="#BFBFBF" fill="#C1C1C1"/>
	<polygon points="157.409,193.458 293.943,314.818 20.875,314.818  " data-original="#010002" class="active-path" data-old_color="#BFBFBF" fill="#C1C1C1"/>
	<polygon points="199.613,215.004 303.669,123.067 303.669,307.497  " data-original="#010002" class="active-path" data-old_color="#BFBFBF" fill="#C1C1C1"/>
	<polygon points="279.736,98.603 299.617,110.715 279.736,128.288  " data-original="#010002" class="active-path" data-old_color="#BFBFBF" fill="#C1C1C1"/>
	<path d="M48.394,0v87.045v53.183l75.499,67.05l33.51-29.787l33.218,29.53l77.175-68.195v-50.85V0H48.394z    M250.122,127.291H64.391v-11.934h185.731C250.122,115.357,250.122,127.291,250.122,127.291z M250.122,103.424H64.391V91.49   h185.731C250.122,91.49,250.122,103.424,250.122,103.424z M250.122,79.556H64.391V67.623h185.731   C250.122,67.623,250.122,79.556,250.122,79.556z M250.122,55.689H64.391V43.755h185.731   C250.122,43.755,250.122,55.689,250.122,55.689z M250.122,31.821H64.391V19.888h185.731   C250.122,19.888,250.122,31.821,250.122,31.821z" data-original="#010002" class="active-path" data-old_color="#BFBFBF" fill="#C1C1C1"/>
</g></g> </svg>
