<?xml version="1.0" encoding="iso-8859-1"?>
<!-- Generator: Adobe Illustrator 16.0.0, SVG Export Plug-In . SVG Version: 6.00 Build 0)  -->
<!DOCTYPE svg PUBLIC "-//W3C//DTD SVG 1.1//EN" "http://www.w3.org/Graphics/SVG/1.1/DTD/svg11.dtd">
<svg xmlns="http://www.w3.org/2000/svg" xmlns:xlink="http://www.w3.org/1999/xlink" version="1.1" id="Capa_1" x="0px" y="0px" width="512px" height="512px" viewBox="0 0 531.774 531.774" style="enable-background:new 0 0 531.774 531.774;" xml:space="preserve">
<g>
	<g>
		<path d="M319.218,0H49.982c0,128.264,40.705,233.815,117.87,247.094v211.677c-25.248,1.483-43.822,6.472-43.822,12.424    c0,0.532,0.183,1.017,0.443,1.525c-27.396,4.144-45.348,11.029-45.348,18.819c0,12.661,47.209,22.935,105.478,22.935    c58.227,0,105.475-10.273,105.475-22.935c0-8.026-19.029-15.072-47.779-19.15c0.15-0.391,0.277-0.804,0.277-1.194    c0-5.757-17.339-10.604-41.236-12.259V247.1C278.51,233.827,319.218,128.282,319.218,0z M112.917,163.876    c-0.792,0.352-1.628,0.515-2.438,0.515c-2.326,0-4.539-1.351-5.544-3.614C74.562,91.928,71.264,24.255,71.137,21.409    c-0.148-3.334,2.438-6.168,5.778-6.312c3.29-0.187,6.168,2.432,6.315,5.78c0.03,0.677,3.357,68.334,32.778,135.017    C117.359,158.95,115.973,162.52,112.917,163.876z" fill="#FFFFFF"/>
		<path d="M458.487,4.141h-3.187v155.021c0,3.686-4.687,6.674-10.479,6.674s-10.479-2.982-10.479-6.674V4.141h-19.417v155.021    c0,3.686-4.693,6.674-10.475,6.674c-5.792,0-10.485-2.982-10.485-6.674V4.141h-7.684c-12.862,0-18.631,9.649-18.631,21.542v148.6    c0,8.018,26.729,27.745,44.142,39.741v43.347c-8.44,2.917-14.529,10.849-14.529,20.282v232.577    c0,11.904,9.641,21.545,21.539,21.545h15.072c11.893,0,21.539-9.641,21.539-21.545V277.646c0-9.428-6.1-17.359-14.534-20.282    v-43.82c16.396-12.031,40.914-31.36,40.914-39.268v-148.6C481.775,13.79,471.349,4.141,458.487,4.141z" fill="#FFFFFF"/>
	</g>
</g>
<g>
</g>
<g>
</g>
<g>
</g>
<g>
</g>
<g>
</g>
<g>
</g>
<g>
</g>
<g>
</g>
<g>
</g>
<g>
</g>
<g>
</g>
<g>
</g>
<g>
</g>
<g>
</g>
<g>
</g>
</svg>
