<?xml version="1.0" encoding="iso-8859-1"?>
<!-- Generator: Adobe Illustrator 19.0.0, SVG Export Plug-In . SVG Version: 6.00 Build 0)  -->
<svg xmlns="http://www.w3.org/2000/svg" xmlns:xlink="http://www.w3.org/1999/xlink" version="1.1" id="Layer_1" x="0px" y="0px" viewBox="0 0 512 512" style="enable-background:new 0 0 512 512;" xml:space="preserve" width="512px" height="512px">
<g>
	<g>
		<path d="M350.768,65.552l-24.246,24.246c-26.375,26.375-26.375,69.291,0,95.665c12.776,12.776,29.763,19.813,47.832,19.813    c18.069,0,35.057-7.036,47.833-19.813l24.247-24.246L350.768,65.552z" fill="#FFFFFF"/>
	</g>
</g>
<g>
	<g>
		<path d="M492.187,19.797c-26.375-26.376-69.291-26.376-95.665,0l-24.246,24.247l95.665,95.666l24.246-24.246    C504.964,102.686,512,85.7,512,67.63C512,49.561,504.964,32.574,492.187,19.797z" fill="#FFFFFF"/>
	</g>
</g>
<g>
	<g>
		<path d="M264.239,36.295L147.64,152.894c14.26,9.827,30.898,14.763,47.546,14.763c21.473,0,42.947-8.175,59.294-24.522    C283.502,114.113,286.739,68.947,264.239,36.295z" fill="#FFFFFF"/>
	</g>
</g>
<g>
	<g>
		<path d="M135.891,24.546c-29.021,29.022-32.258,74.189-9.757,106.841l116.599-116.6C210.082-7.715,164.914-4.477,135.891,24.546z" fill="#FFFFFF"/>
	</g>
</g>
<g>
	<g>
		<path d="M300.775,206.979c-30.088-30.087-79.044-30.087-109.131,0c-30.088,30.088-30.088,79.043,0,109.131    c15.043,15.043,34.805,22.566,54.565,22.566c19.761,0,39.521-7.523,54.566-22.566    C330.862,286.022,330.862,237.067,300.775,206.979z" fill="#FFFFFF"/>
	</g>
</g>
<g>
	<g>
		<path d="M107.839,155.045c-11.928-11.928-27.786-18.497-44.655-18.497c-16.868,0-32.727,6.569-44.655,18.497    c-24.622,24.623-24.622,64.687,0,89.309c11.928,11.928,27.786,18.497,44.655,18.497c16.868,0,32.727-6.569,44.655-18.497    C132.462,219.732,132.462,179.667,107.839,155.045z" fill="#FFFFFF"/>
	</g>
</g>
<g>
	<g>
		<path d="M340.393,420.349c-20.922-20.922-54.963-20.924-75.886,0c-10.135,10.134-15.717,23.609-15.717,37.942    c0,14.334,5.581,27.809,15.717,37.943c10.462,10.462,24.2,15.693,37.943,15.692c13.74-0.001,27.483-5.231,37.943-15.692    c10.135-10.134,15.717-23.609,15.717-37.943C356.11,443.959,350.529,430.484,340.393,420.349z" fill="#FFFFFF"/>
	</g>
</g>
<g>
	<g>
		<path d="M486.241,273.11c-16.611-16.611-38.696-25.759-62.187-25.759c-23.491,0-45.576,9.148-62.186,25.759    c-16.611,16.611-25.759,38.695-25.759,62.186c0,23.491,9.148,45.576,25.759,62.187c17.145,17.145,39.665,25.717,62.186,25.717    c22.52,0,45.042-8.572,62.187-25.717C502.852,380.872,512,358.786,512,335.295C512,311.805,502.852,289.72,486.241,273.11z     M467.222,350.503h-27.96v27.96h-30.415v-27.96h-27.96v-30.415h27.96v-27.959h30.415v27.959h27.96V350.503z" fill="#FFFFFF"/>
	</g>
</g>
<g>
	<g>
		<path d="M220.992,416.941c-5.882-28.074-22.136-56.55-45.767-80.18c-23.631-23.632-52.106-39.885-80.181-45.768    c-30.411-6.372-56.985-0.052-74.831,17.796C2.366,326.635-3.954,353.211,2.418,383.62c5.882,28.074,22.135,56.55,45.767,80.18    c23.632,23.632,52.106,39.885,80.18,45.768c7.725,1.618,15.197,2.417,22.347,2.417c20.996,0,39.172-6.899,52.484-20.213    C221.043,473.925,227.363,447.35,220.992,416.941z M137.654,447.736l-73.406-73.405l21.507-21.507l73.406,73.405L137.654,447.736z    " fill="#FFFFFF"/>
	</g>
</g>
<g>
</g>
<g>
</g>
<g>
</g>
<g>
</g>
<g>
</g>
<g>
</g>
<g>
</g>
<g>
</g>
<g>
</g>
<g>
</g>
<g>
</g>
<g>
</g>
<g>
</g>
<g>
</g>
<g>
</g>
</svg>
