<?xml version="1.0" encoding="iso-8859-1"?>
<!-- Generator: Adobe Illustrator 17.1.0, SVG Export Plug-In . SVG Version: 6.00 Build 0)  -->
<!DOCTYPE svg PUBLIC "-//W3C//DTD SVG 1.1//EN" "http://www.w3.org/Graphics/SVG/1.1/DTD/svg11.dtd">
<svg xmlns="http://www.w3.org/2000/svg" xmlns:xlink="http://www.w3.org/1999/xlink" version="1.1" id="Capa_1" x="0px" y="0px" viewBox="0 0 216.64 216.64" style="enable-background:new 0 0 216.64 216.64;" xml:space="preserve" width="512px" height="512px">
<path d="M160.967,125.61v83.529c0,4.143-3.358,7.5-7.5,7.5H63.173c-4.142,0-7.5-3.357-7.5-7.5V53.508  c0-28.524,21.907-51.996,49.873-53.437C106.467,0.024,107.401,0,108.321,0c25.035,0,46.632,17.688,51.586,42.145  c0.176,0.638,0.27,1.309,0.27,2.002c0,4.143-3.358,7.5-7.5,7.5c-0.007,0-0.014,0-0.02,0h-18.975c-3.132,0-5.934-1.946-7.028-4.881  c-2.931-7.867-10.643-13.058-19.079-12.75c-10.009,0.368-18.273,8.483-18.813,18.474c-0.295,5.452,1.599,10.627,5.335,14.569  c3.697,3.902,8.677,6.071,14.042,6.119c0.131-0.006,0.264-0.009,0.396-0.01c0.145,0,0.29,0.004,0.434,0.013  C137.681,73.414,160.967,96.844,160.967,125.61z" fill="#999999"/>
<g>
</g>
<g>
</g>
<g>
</g>
<g>
</g>
<g>
</g>
<g>
</g>
<g>
</g>
<g>
</g>
<g>
</g>
<g>
</g>
<g>
</g>
<g>
</g>
<g>
</g>
<g>
</g>
<g>
</g>
</svg>
