<?xml version="1.0" encoding="iso-8859-1"?>
<!-- Generator: Adobe Illustrator 18.0.0, SVG Export Plug-In . SVG Version: 6.00 Build 0)  -->
<!DOCTYPE svg PUBLIC "-//W3C//DTD SVG 1.1//EN" "http://www.w3.org/Graphics/SVG/1.1/DTD/svg11.dtd">
<svg xmlns="http://www.w3.org/2000/svg" xmlns:xlink="http://www.w3.org/1999/xlink" version="1.1" id="Capa_1" x="0px" y="0px" viewBox="0 0 58.118 58.118" style="enable-background:new 0 0 58.118 58.118;" xml:space="preserve" width="512px" height="512px">
<g>
	<circle cx="37.997" cy="3.55" r="1" fill="#FFFFFF"/>
	<circle cx="40.997" cy="5.55" r="1" fill="#FFFFFF"/>
	<circle cx="38.997" cy="8.55" r="1" fill="#FFFFFF"/>
	<path d="M56.905,41.129c-1.88-4.055-1.907-9.524-1.907-9.579v-19.49h-2v-12h-19v12h-2v18.194c0,1.553-0.98,2.952-2.439,3.483   L9.997,40.849v2.21l-5.845-0.001c-0.587,0-2.583,0.109-3.6,1.511c-0.431,0.595-0.832,1.648-0.293,3.292   c0.766,2.336,4.412,5.765,9.738,7.742v1.664l0.68,0.229c1.118,0.378,2.331,0.563,3.707,0.563c2.572,0,5.279-0.643,8.146-1.321   l0.908-0.215c4.461-1.047,8.599-1.534,13.022-1.534c2.549,0,4.841,0.158,7.057,0.312c1.541,0.106,2.997,0.207,4.452,0.249   c0.23,0.006,0.454,0.01,0.671,0.01c0,0,0,0,0,0c6.124,0,7.634-2.529,8.131-3.36l0.055-0.091   C57.434,51.207,59.358,46.419,56.905,41.129z M9.997,53.464c-4.557-1.859-7.346-4.724-7.838-6.226   c-0.221-0.675-0.217-1.179,0.013-1.495c0.391-0.54,1.462-0.684,2.033-0.684c0.001,0,0.002,0,0.004,0h5.788V53.464z M35.997,30.55   c0.552,0,1,0.448,1,1c0,0.552-0.448,1-1,1c-0.552,0-1-0.448-1-1C34.997,30.998,35.445,30.55,35.997,30.55z M35.997,36.55   c-0.552,0-1-0.448-1-1c0-0.552,0.448-1,1-1c0.552,0,1,0.448,1,1C36.997,36.102,36.55,36.55,35.997,36.55z M37.997,34.55   c-0.552,0-1-0.448-1-1c0-0.552,0.448-1,1-1c0.552,0,1,0.448,1,1C38.997,34.102,38.55,34.55,37.997,34.55z M39.997,36.55   c-0.552,0-1-0.448-1-1c0-0.552,0.448-1,1-1c0.552,0,1,0.448,1,1C40.997,36.102,40.55,36.55,39.997,36.55z M38.997,31.55   c0-0.552,0.448-1,1-1c0.552,0,1,0.448,1,1c0,0.552-0.448,1-1,1C39.445,32.55,38.997,32.102,38.997,31.55z M41.997,38.55   c-0.552,0-1-0.448-1-1c0-0.552,0.448-1,1-1c0.552,0,1,0.448,1,1C42.997,38.102,42.55,38.55,41.997,38.55z M50.997,12.059h-15V7.55   c0.552,0,1-0.448,1-1c0-0.552-0.448-1-1-1V2.059h15V12.059z" fill="#FFFFFF"/>
</g>
<g>
</g>
<g>
</g>
<g>
</g>
<g>
</g>
<g>
</g>
<g>
</g>
<g>
</g>
<g>
</g>
<g>
</g>
<g>
</g>
<g>
</g>
<g>
</g>
<g>
</g>
<g>
</g>
<g>
</g>
</svg>
