<?xml version="1.0" encoding="iso-8859-1"?>
<!-- Generator: Adobe Illustrator 19.0.0, SVG Export Plug-In . SVG Version: 6.00 Build 0)  -->
<svg xmlns="http://www.w3.org/2000/svg" xmlns:xlink="http://www.w3.org/1999/xlink" version="1.1" id="Layer_1" x="0px" y="0px" viewBox="0 0 500 500" style="enable-background:new 0 0 500 500;" xml:space="preserve" width="512px" height="512px">
<g style="opacity:0.9;enable-background:new    ;">
	<g>
		<path d="M238.785,44.848c-0.472-0.52-0.932-1.048-1.396-1.58c-0.9-1.032-1.796-2.06-2.776-3.036    C208.665,14.292,174.165,0,137.473,0c-36.696,0-71.2,14.292-97.148,40.232c-25.948,25.952-40.24,60.456-40.24,97.152    c0,36.696,14.288,71.188,40.24,97.14l102.448,102.452l194.068-194.08L238.785,44.848z M87.345,175.752    c-3.688,3.684-8.584,5.716-13.8,5.716s-10.112-2.032-13.8-5.716c-3.688-3.688-5.716-8.584-5.716-13.8s2.028-10.108,5.716-13.796    c3.688-3.688,8.584-5.724,13.8-5.724s10.112,2.032,13.8,5.724c3.688,3.688,5.72,8.58,5.72,13.796    C93.065,167.172,91.033,172.064,87.345,175.752z M131.469,219.884c-3.684,3.676-8.584,5.708-13.796,5.708    c-5.22,0-10.116-2.032-13.804-5.708c-3.684-3.688-5.716-8.588-5.716-13.808c0-5.208,2.032-10.108,5.716-13.796    c3.688-3.688,8.584-5.716,13.804-5.716c5.212,0,10.112,2.024,13.796,5.716c3.688,3.688,5.72,8.584,5.72,13.796    C137.189,211.292,135.157,216.196,131.469,219.884z M131.593,131.504c-3.688,3.688-8.584,5.724-13.8,5.724    s-10.112-2.032-13.8-5.724c-7.608-7.608-7.608-19.996,0-27.596c3.688-3.688,8.584-5.716,13.8-5.716s10.112,2.028,13.8,5.716    C139.201,111.508,139.201,123.892,131.593,131.504z M192.441,103.712c3.684-3.688,8.584-5.716,13.796-5.716    c5.216,0,10.112,2.028,13.8,5.716c7.608,7.6,7.608,19.988,0,27.596c-3.688,3.688-8.584,5.72-13.8,5.72    c-5.212,0-10.112-2.032-13.796-5.72C184.833,123.7,184.833,111.312,192.441,103.712z M175.797,264.212    c-3.688,3.688-8.584,5.716-13.796,5.716c-5.216,0-10.112-2.024-13.804-5.716c-7.604-7.612-7.604-19.996,0-27.6    c3.692-3.688,8.588-5.72,13.804-5.72c5.212,0,10.108,2.032,13.796,5.72C183.409,244.216,183.409,256.6,175.797,264.212z     M148.117,148.028c3.688-3.688,8.584-5.716,13.804-5.716c5.212,0,10.108,2.028,13.796,5.716c7.608,7.6,7.608,19.996,0,27.6    c-3.688,3.684-8.584,5.72-13.796,5.72c-5.22,0-10.116-2.032-13.804-5.72C140.509,168.024,140.509,155.632,148.117,148.028z     M175.913,87.184c-3.688,3.68-8.584,5.716-13.796,5.716c-5.22,0-10.116-2.032-13.804-5.716c-7.608-7.608-7.608-19.992,0-27.604    c3.688-3.688,8.584-5.708,13.804-5.708c5.212,0,10.108,2.02,13.796,5.708C183.521,67.188,183.521,79.576,175.913,87.184z     M220.049,219.964c-3.692,3.676-8.584,5.708-13.8,5.708c-5.212,0-10.116-2.032-13.796-5.708    c-3.692-3.684-5.728-8.588-5.728-13.808c0.004-5.212,2.036-10.112,5.728-13.796c3.68-3.688,8.584-5.716,13.796-5.716    c5.216,0,10.108,2.024,13.8,5.716c3.684,3.688,5.716,8.584,5.716,13.796C225.765,211.376,223.733,216.276,220.049,219.964z     M250.569,181.356c-5.22,0-10.116-2.032-13.804-5.72c-3.684-3.688-5.716-8.584-5.716-13.8c0.004-5.216,2.036-10.108,5.716-13.796    c3.688-3.688,8.584-5.72,13.804-5.72c5.212,0,10.116,2.032,13.796,5.72c3.692,3.688,5.72,8.58,5.72,13.796    s-2.028,10.112-5.72,13.8C260.685,179.32,255.781,181.356,250.569,181.356z" fill="#FFFFFF"/>
	</g>
</g>
<g style="opacity:0.9;enable-background:new    ;">
	<g>
		<path d="M466.481,272.812c-0.184-0.368-0.432-0.716-0.744-1.024l-1.708-1.692c-0.452-0.5-0.892-1.004-1.332-1.504    c-0.916-1.052-1.84-2.108-2.84-3.104c-1.02-1.032-2.096-1.968-3.172-2.912l-1.32-1.152L353.401,159.452l-194.064,194.08    l112.336,112.332c0.524,0.524,1.16,0.908,1.832,1.072C298.373,488.244,330.049,500,362.889,500h0.008    c36.616,0,71.052-14.296,96.956-40.204C510.637,409.004,513.465,327.048,466.481,272.812z M258.569,346.976    c-3.688,3.688-8.588,5.72-13.8,5.72c-5.216,0-10.112-2.032-13.804-5.72c-3.68-3.688-5.712-8.588-5.712-13.796    c0-5.22,2.032-10.12,5.712-13.8c3.692-3.688,8.588-5.716,13.804-5.716c5.212,0,10.112,2.028,13.8,5.716    c3.684,3.68,5.716,8.584,5.716,13.8C264.281,338.384,262.249,343.284,258.569,346.976z M302.693,391.1    c-3.688,3.688-8.584,5.72-13.8,5.72c-5.212,0-10.112-2.032-13.8-5.72c-3.684-3.68-5.716-8.58-5.716-13.796    s2.032-10.112,5.716-13.8c3.688-3.684,8.588-5.716,13.8-5.716c5.22,0,10.112,2.032,13.8,5.716c3.684,3.684,5.72,8.584,5.72,13.8    S306.377,387.42,302.693,391.1z M302.817,302.728c-3.688,3.68-8.584,5.708-13.804,5.708c-5.212,0-10.108-2.028-13.8-5.708    c-7.604-7.612-7.604-19.996,0-27.608c3.692-3.684,8.588-5.712,13.8-5.712c5.22,0,10.116,2.024,13.804,5.712    C310.425,282.736,310.425,295.116,302.817,302.728z M347.021,435.436c-3.684,3.68-8.584,5.712-13.8,5.712    c-5.212,0-10.112-2.028-13.796-5.712c-3.688-3.688-5.716-8.588-5.716-13.808c0-5.212,2.028-10.112,5.716-13.8    c3.684-3.676,8.584-5.708,13.796-5.708c5.216,0,10.116,2.032,13.8,5.708c3.688,3.688,5.724,8.588,5.724,13.8    C352.745,426.844,350.709,431.748,347.021,435.436z M319.345,319.252c3.684-3.688,8.584-5.716,13.8-5.716    c5.212,0,10.112,2.024,13.792,5.716c7.612,7.604,7.612,19.988,0,27.6c-3.68,3.688-8.584,5.716-13.792,5.716    c-5.216,0-10.116-2.028-13.8-5.716C311.733,339.24,311.733,326.86,319.345,319.252z M347.133,258.404    c-3.684,3.688-8.584,5.724-13.796,5.724s-10.116-2.032-13.796-5.724c-7.612-7.604-7.612-19.996,0-27.6    c3.68-3.688,8.584-5.716,13.796-5.716s10.112,2.028,13.796,5.716C354.741,238.408,354.741,250.796,347.133,258.404z     M363.661,274.928c3.688-3.68,8.584-5.708,13.804-5.708c5.212,0,10.108,2.028,13.796,5.708c7.608,7.612,7.608,19.996,0,27.608    c-3.688,3.68-8.584,5.716-13.796,5.716c-5.22,0-10.116-2.032-13.804-5.716C356.053,294.92,356.053,282.54,363.661,274.928z     M391.273,391.18c-3.688,3.688-8.588,5.72-13.8,5.72c-5.22,0-10.116-2.032-13.8-5.72c-3.684-3.676-5.72-8.58-5.72-13.796    s2.036-10.116,5.72-13.8c3.684-3.684,8.584-5.716,13.8-5.716c5.212,0,10.112,2.032,13.8,5.716c3.684,3.688,5.716,8.584,5.716,13.8    C396.989,382.6,394.957,387.496,391.273,391.18z M435.589,346.86c-3.688,3.688-8.584,5.72-13.8,5.72    c-5.212,0-10.112-2.032-13.796-5.72c-3.692-3.688-5.72-8.588-5.72-13.796c0-5.216,2.028-10.12,5.72-13.8    c3.684-3.688,8.584-5.72,13.796-5.72c5.216,0,10.112,2.028,13.8,5.72c3.684,3.676,5.72,8.584,5.72,13.8    C441.309,338.272,439.273,343.176,435.589,346.86z" fill="#FFFFFF"/>
	</g>
</g>
<g>
</g>
<g>
</g>
<g>
</g>
<g>
</g>
<g>
</g>
<g>
</g>
<g>
</g>
<g>
</g>
<g>
</g>
<g>
</g>
<g>
</g>
<g>
</g>
<g>
</g>
<g>
</g>
<g>
</g>
</svg>
