<?xml version="1.0" encoding="iso-8859-1"?>
<!-- Generator: Adobe Illustrator 18.1.1, SVG Export Plug-In . SVG Version: 6.00 Build 0)  -->
<svg version="1.1" id="Capa_1" xmlns="http://www.w3.org/2000/svg" xmlns:xlink="http://www.w3.org/1999/xlink" x="0px" y="0px"
	 viewBox="0 0 18.58 18.58" style="enable-background:new 0 0 18.58 18.58;" xml:space="preserve">
<g>
	<path d="M18.58,5.188h-0.002c0-1.148-0.93-2.078-2.077-2.078h-1.138c-0.061,0-0.118,0.012-0.178,0.018
		c0.049,0.167,0.081,0.349,0.089,0.549c0.009,0.209,0.007,0.418,0.013,0.627c0.024-0.002,0.05-0.007,0.076-0.007h1.138
		c0.49,0,0.89,0.399,0.89,0.891v3.093c-0.773-0.806-1.858-1.309-3.063-1.309c-1.665,0-3.103,0.959-3.8,2.354
		c-0.029,0.035-0.065,0.064-0.093,0.101C9.744,8.974,8.841,8.976,8.152,9.433C8.121,9.391,8.08,9.359,8.047,9.318
		c-0.698-1.39-2.134-2.347-3.796-2.347c-1.203,0-2.288,0.501-3.061,1.305v-3.09c0-0.492,0.399-0.891,0.89-0.891h1.139
		c0.025,0,0.05,0.004,0.075,0.007C3.3,4.093,3.298,3.884,3.307,3.675c0.009-0.2,0.04-0.382,0.089-0.549
		C3.336,3.12,3.28,3.108,3.219,3.108H2.08c-1.146,0-2.077,0.93-2.077,2.078v4.393c0,0.189,0.028,0.37,0.076,0.544
		c-0.045,0.169-0.076,0.344-0.076,0.527v0.515C0.003,11.184,0,11.202,0,11.221s0.003,0.037,0.003,0.056v0.201
		c0.003-0.001,0.007-0.001,0.01-0.002c0.133,2.228,1.977,3.996,4.238,3.996c2.347,0,4.25-1.903,4.25-4.25
		c0-0.152-0.009-0.302-0.024-0.45c0.024,0.007,0.051,0.011,0.075,0.019v-0.138l0.117-0.117c0.348-0.347,0.912-0.347,1.26,0
		l0.103,0.103c0,0.003-0.001,0.007-0.001,0.011v0.118c0.024-0.007,0.05-0.008,0.075-0.014c-0.017,0.153-0.027,0.31-0.027,0.468
		c0,2.347,1.903,4.25,4.25,4.25c2.348,0,4.251-1.903,4.251-4.25c0-0.171-0.014-0.339-0.032-0.505
		c0.01,0.004,0.021,0.006,0.032,0.011v-0.077c0-0.184-0.031-0.358-0.076-0.527C18.552,9.951,18.58,9.77,18.58,9.58
		C18.58,9.58,18.58,5.188,18.58,5.188z M4.25,14.436c-1.775,0-3.213-1.438-3.213-3.212c0-1.775,1.438-3.213,3.213-3.213
		c1.774,0,3.213,1.438,3.213,3.213C7.463,12.998,6.025,14.436,4.25,14.436z M14.328,14.436c-1.773,0-3.213-1.438-3.213-3.212
		c0-1.775,1.439-3.213,3.213-3.213c1.775,0,3.214,1.438,3.214,3.213C17.541,12.998,16.103,14.436,14.328,14.436z"/>
</g>
<g>
</g>
<g>
</g>
<g>
</g>
<g>
</g>
<g>
</g>
<g>
</g>
<g>
</g>
<g>
</g>
<g>
</g>
<g>
</g>
<g>
</g>
<g>
</g>
<g>
</g>
<g>
</g>
<g>
</g>
</svg>
