<?xml version="1.0" encoding="iso-8859-1"?>
<!-- Generator: Adobe Illustrator 19.0.0, SVG Export Plug-In . SVG Version: 6.00 Build 0)  -->
<svg xmlns="http://www.w3.org/2000/svg" xmlns:xlink="http://www.w3.org/1999/xlink" version="1.1" id="Layer_1" x="0px" y="0px" viewBox="0 0 512 512" style="enable-background:new 0 0 512 512;" xml:space="preserve" width="512px" height="512px">
<g>
	<g>
		<path d="M373.003,248.805c-8.099,57.327-57.477,101.569-117.004,101.569c-65.162,0-118.176-53.013-118.176-118.175    s53.014-118.174,118.176-118.174c59.526,0,108.905,44.242,117.002,101.57h24.697V87.455H114.3v26.569h0.264    c9.171,0,16.605,7.435,16.605,16.605s-7.435,16.605-16.605,16.605H114.3v163.84h0.264c9.171,0,16.605,7.435,16.605,16.605    s-7.435,16.605-16.605,16.605H114.3v26.569h283.399V248.805H373.003z" fill="#999999"/>
	</g>
</g>
<g>
	<g>
		<path d="M300.544,232.199c0-9.171,7.435-16.605,16.605-16.605h22.173c-7.745-38.926-42.156-68.359-83.324-68.359    c-46.85,0-84.965,38.115-84.965,84.965s38.115,84.965,84.965,84.965c41.167,0,75.579-29.433,83.324-68.359H317.15    C307.979,248.805,300.544,241.37,300.544,232.199z" fill="#999999"/>
	</g>
</g>
<g>
	<g>
		<path d="M449.807,0H62.191C42.701,0,26.845,15.856,26.845,35.346v387.617c0,19.49,15.856,35.345,35.346,35.345h18.378v37.086    c0,9.171,7.435,16.605,16.605,16.605h84.068c9.171,0,16.605-7.435,16.605-16.605v-37.086h116.304v37.086    c0,9.171,7.435,16.605,16.606,16.605h84.068c9.171,0,16.605-7.435,16.605-16.605v-37.086h18.378    c19.49,0,35.346-15.856,35.346-35.345V35.346C485.154,15.856,469.298,0,449.807,0z M432.281,248.805h-1.371V387.46    c0,9.171-7.435,16.605-16.605,16.605H97.695c-9.171,0-16.605-7.435-16.605-16.605v-43.175h-0.842    c-9.171,0-16.605-7.435-16.605-16.605s7.435-16.605,16.605-16.605h0.842v-163.84h-0.842c-9.171,0-16.605-7.435-16.605-16.605    s7.435-16.605,16.605-16.605h0.842V70.85c0-9.171,7.435-16.605,16.605-16.605h316.61c9.171,0,16.606,7.435,16.606,16.605v144.744    h1.371c9.171,0,16.605,7.435,16.605,16.606C448.886,241.37,441.451,248.805,432.281,248.805z" fill="#999999"/>
	</g>
</g>
<g>
</g>
<g>
</g>
<g>
</g>
<g>
</g>
<g>
</g>
<g>
</g>
<g>
</g>
<g>
</g>
<g>
</g>
<g>
</g>
<g>
</g>
<g>
</g>
<g>
</g>
<g>
</g>
<g>
</g>
</svg>
