<?xml version="1.0" encoding="iso-8859-1"?>
<!-- Generator: Adobe Illustrator 16.0.0, SVG Export Plug-In . SVG Version: 6.00 Build 0)  -->
<!DOCTYPE svg PUBLIC "-//W3C//DTD SVG 1.1//EN" "http://www.w3.org/Graphics/SVG/1.1/DTD/svg11.dtd">
<svg xmlns="http://www.w3.org/2000/svg" xmlns:xlink="http://www.w3.org/1999/xlink" version="1.1" id="Capa_1" x="0px" y="0px" width="512px" height="512px" viewBox="0 0 76.498 76.498" style="enable-background:new 0 0 76.498 76.498;" xml:space="preserve">
<g>
	<path d="M54.746,19.47v-5.926H44.378c0-3.627-2.945-6.568-6.568-6.568c-3.628,0-6.568,2.946-6.568,6.568h-9.488v5.926H0v50.052   h76.498V19.47H54.746z M37.81,9.893c2.013,0,3.649,1.633,3.649,3.648c0,2.017-1.634,3.649-3.649,3.649   c-2.016,0-3.648-1.63-3.648-3.649C34.159,11.531,35.792,9.893,37.81,9.893z M34.318,34.664h36.429v2.411H34.318V34.664z    M30.421,59.946H5.9V34.459h24.521V59.946z M71.302,60.093H34.318v-2.411h36.984V60.093z M71.302,48.582H34.318v-2.408h36.984   V48.582z M18.004,56.557h9.201c0-2.527-0.99-4.822-2.59-6.532v-5.416c0-4.302-3.125-7.783-6.982-7.783   c-3.852,0-6.981,3.481-6.981,7.783v5.416c-1.602,1.708-2.588,4.005-2.588,6.532h9.07l-0.985-3.586l-0.74-2.696   c0.698,0.288,1.445,0.461,2.229,0.461c0.729,0,1.43-0.146,2.086-0.401l-0.729,2.637L18.004,56.557z M13.184,48.085   c-0.306-0.431-0.561-0.908-0.736-1.424l-0.049-0.141l-0.145,0.022l-0.066,0.022c-0.458,0-0.832-0.529-0.832-1.172   c0-0.36,0.12-0.68,0.316-0.895c0.076,0.251,0.145,0.388,0.205,0.461c0,0.005,0.002,0.005,0.005,0.009l0,0   c0.073,0.087,0.138,0.082,0.187,0.082l0.243-0.05l-0.1-0.169c0.069-0.287,0.932-1.752,3.455-1.752c0.462,0,0.958,0.051,1.476,0.146   c1.025,0.191,1.872-0.274,2.389-1.277c0.028,0.161,0.173,0.976,0.435,1.341c0.648,0.912,1.685,0.803,1.92,0.732   c0.189-0.053,0.346-0.14,0.484-0.239c0.294,0.475,0.43,0.88,0.451,1.021l-0.21,0.242h0.377c0.038,0,0.082,0,0.133-0.064   l0.005,0.005c0.015-0.019,0.026-0.036,0.035-0.057c0.056-0.101,0.116-0.292,0.176-0.642c0.345,0.148,0.588,0.584,0.588,1.1   c0,0.644-0.372,1.177-0.822,1.177l0,0c-0.022-0.009-0.049-0.022-0.082-0.027l-0.145-0.022l-0.049,0.146   c-0.17,0.521-0.43,0.995-0.736,1.424c-0.575,0.803-1.355,1.421-2.249,1.815c-0.682,0.302-1.422,0.478-2.2,0.478   c-0.829,0-1.629-0.196-2.349-0.536C14.452,49.444,13.725,48.847,13.184,48.085z M17.633,49.189c-0.481,0-0.91-0.133-1.233-0.324   c-0.187-0.114-0.35-0.244-0.451-0.393c0.283,0.188,0.665,0.329,1.119,0.393c0.179,0.027,0.368,0.046,0.569,0.046   c0.202,0,0.39-0.019,0.573-0.046c0.443-0.063,0.832-0.205,1.117-0.393c-0.101,0.148-0.261,0.278-0.451,0.393   C18.542,49.057,18.116,49.189,17.633,49.189z M15.865,45.017c0.042,0.087,0.063,0.179,0.063,0.278c0,0.372-0.301,0.676-0.675,0.676   c-0.373,0-0.674-0.304-0.674-0.676c0-0.1,0.022-0.191,0.062-0.278c0.105-0.234,0.339-0.396,0.611-0.396   C15.526,44.62,15.76,44.786,15.865,45.017z M19.335,45.298c0-0.101,0.026-0.192,0.064-0.278c0.105-0.233,0.339-0.397,0.611-0.397   c0.274,0,0.508,0.164,0.615,0.397c0.04,0.086,0.061,0.178,0.061,0.278c0,0.374-0.301,0.675-0.675,0.675   C19.64,45.973,19.335,45.672,19.335,45.298z" fill="#999999"/>
</g>
<g>
</g>
<g>
</g>
<g>
</g>
<g>
</g>
<g>
</g>
<g>
</g>
<g>
</g>
<g>
</g>
<g>
</g>
<g>
</g>
<g>
</g>
<g>
</g>
<g>
</g>
<g>
</g>
<g>
</g>
</svg>
