<?xml version="1.0" encoding="iso-8859-1"?>
<!-- Generator: Adobe Illustrator 19.0.0, SVG Export Plug-In . SVG Version: 6.00 Build 0)  -->
<svg xmlns="http://www.w3.org/2000/svg" xmlns:xlink="http://www.w3.org/1999/xlink" version="1.1" id="Layer_1" x="0px" y="0px" viewBox="0 0 512 512" style="enable-background:new 0 0 512 512;" xml:space="preserve" width="512px" height="512px">
<g>
	<g>
		<path d="M498.814,140.413L371.587,13.186c-17.581-17.581-46.033-17.581-63.614,0L95.929,225.23    c-17.58,17.58-17.582,46.032,0,63.613L223.156,416.07c17.581,17.581,46.032,17.582,63.614,0l212.045-212.044    C516.395,186.446,516.396,157.993,498.814,140.413z M354.774,38.782l118.443,118.443H354.774V38.782z M239.969,390.474    L121.525,272.031h118.443V390.474z M121.524,242.143L324.887,38.781V227.05c0,8.268-6.826,15.094-15.094,15.094H121.524z     M269.856,390.475V272.031h39.937c24.803,0,44.981-20.179,44.981-44.981v-39.937h118.444L269.856,390.475z" fill="#FFFFFF"/>
	</g>
</g>
<g>
	<g>
		<path d="M116.779,352.812c-5.856-5.856-15.35-5.856-21.205,0L4.392,443.995c-5.856,5.856-5.856,15.349,0,21.204    c5.855,5.856,15.35,5.856,21.204,0l91.183-91.183C122.635,368.16,122.635,358.667,116.779,352.812z" fill="#FFFFFF"/>
	</g>
</g>
<g>
	<g>
		<path d="M74.37,310.403c-5.856-5.857-15.35-5.857-21.204,0L4.392,359.177c-5.856,5.856-5.856,15.349,0,21.204    c5.855,5.856,15.35,5.856,21.204,0l48.774-48.774C80.225,325.752,80.225,316.259,74.37,310.403z" fill="#FFFFFF"/>
	</g>
</g>
<g>
	<g>
		<path d="M159.188,395.22c-5.856-5.856-15.35-5.856-21.205,0.001L46.8,486.404c-5.856,5.856-5.856,15.349,0,21.204    c5.855,5.856,15.35,5.856,21.204,0l91.183-91.183C165.043,410.569,165.043,401.076,159.188,395.22z" fill="#FFFFFF"/>
	</g>
</g>
<g>
	<g>
		<path d="M201.596,437.63c-5.855-5.856-15.349-5.856-21.204,0l-48.774,48.774c-5.856,5.856-5.856,15.349,0,21.204    c5.855,5.856,15.35,5.856,21.204,0l48.774-48.774C207.452,452.978,207.452,443.485,201.596,437.63z" fill="#FFFFFF"/>
	</g>
</g>
<g>
</g>
<g>
</g>
<g>
</g>
<g>
</g>
<g>
</g>
<g>
</g>
<g>
</g>
<g>
</g>
<g>
</g>
<g>
</g>
<g>
</g>
<g>
</g>
<g>
</g>
<g>
</g>
<g>
</g>
</svg>
