<?xml version="1.0" encoding="iso-8859-1"?>
<!-- Generator: Adobe Illustrator 19.0.0, SVG Export Plug-In . SVG Version: 6.00 Build 0)  -->
<svg xmlns="http://www.w3.org/2000/svg" xmlns:xlink="http://www.w3.org/1999/xlink" version="1.1" id="Layer_1" x="0px" y="0px" viewBox="0 0 512 512" style="enable-background:new 0 0 512 512;" xml:space="preserve" width="512px" height="512px">
<g>
	<g>
		<g>
			<path d="M76.8,256c0,14.138,11.462,25.6,25.6,25.6S128,270.138,128,256v-8.533c0-14.138-11.461-25.6-25.6-25.6     s-25.6,11.461-25.6,25.6V256z" fill="#999999"/>
			<path d="M444.501,170.667h-1.536c-8.982,0.047-16.252,7.317-16.299,16.299v78.336c0.047,8.982,7.317,16.252,16.299,16.299h1.536     c8.982-0.047,16.252-7.317,16.299-16.299v-78.336C460.753,177.983,453.483,170.713,444.501,170.667z" fill="#999999"/>
			<path d="M486.4,119.467h-68.267V85.333h8.533c14.138,0,25.6-11.461,25.6-25.6s-11.461-25.6-25.6-25.6H281.6V25.6     C281.6,11.461,270.138,0,256,0s-25.6,11.461-25.6,25.6v8.533H85.333c-14.138,0-25.6,11.461-25.6,25.6s11.461,25.6,25.6,25.6     h8.533v34.133H25.6c-14.138,0-25.6,11.461-25.6,25.6V307.2c0,14.138,11.461,25.6,25.6,25.6h162.133     c14.138,0,25.6-11.461,25.6-25.6V145.067c0-14.138-11.462-25.6-25.6-25.6h-76.8V85.333H230.4v264.533     c-75.405,0-136.533,61.128-136.533,136.533c0,14.138,11.461,25.6,25.6,25.6h273.067c14.138,0,25.6-11.461,25.6-25.6     c0-75.405-61.128-136.533-136.533-136.533V85.333h119.467v34.133h-76.8c-14.138,0-25.6,11.461-25.6,25.6V307.2     c0,14.138,11.462,25.6,25.6,25.6H486.4c14.138,0,25.6-11.461,25.6-25.6V145.067C512,130.928,500.539,119.467,486.4,119.467z      M139.349,174.933c3.745,6.486,5.717,13.844,5.717,21.333H128c0-14.138-11.461-25.6-25.6-25.6s-25.6,11.461-25.6,25.6v17.067     c7.362-5.584,16.36-8.583,25.6-8.533c13.43,0,26.076,6.323,34.133,17.067h59.733v17.067h-52.053     c0.546,2.812,0.831,5.669,0.853,8.533V256c0,23.564-19.102,42.667-42.667,42.667S59.733,279.564,59.733,256v-17.067H17.067     v-17.067h42.667v-25.6c0.001-23.564,19.104-42.666,42.669-42.665C117.644,153.603,131.728,161.734,139.349,174.933z      M230.4,401.067c-41.129,0.012-76.397,29.361-83.883,69.803c-0.751,4.105-4.36,7.065-8.533,6.997     c-0.481,0.075-0.97,0.075-1.451,0c-4.609-0.864-7.657-5.284-6.827-9.899c8.898-48.625,51.261-83.952,100.693-83.968     c4.713,0,8.533,3.821,8.533,8.533C238.933,397.246,235.113,401.067,230.4,401.067z M494.933,238.933h-17.067v26.368     c-0.047,18.408-14.958,33.318-33.365,33.365h-1.536c-18.408-0.047-33.318-14.958-33.365-33.365v-26.368h-8.533v26.368     c-0.047,18.408-14.958,33.318-33.365,33.365h-1.536c-18.408-0.047-33.318-14.958-33.365-33.365v-26.368h-17.067v-17.067H332.8     v-34.901c0.047-18.408,14.958-33.318,33.365-33.365h1.536c18.408,0.047,33.318,14.958,33.365,33.365v34.901h8.533v-34.901     c0.047-18.408,14.958-33.318,33.365-33.365h1.536c18.408,0.047,33.318,14.958,33.365,33.365v34.901h17.067V238.933z" fill="#999999"/>
			<path d="M367.701,170.667h-1.536c-8.982,0.047-16.252,7.317-16.299,16.299v78.336c0.047,8.982,7.317,16.252,16.299,16.299h1.536     c8.982-0.047,16.252-7.317,16.299-16.299v-78.336C383.953,177.983,376.683,170.713,367.701,170.667z" fill="#999999"/>
		</g>
	</g>
</g>
<g>
</g>
<g>
</g>
<g>
</g>
<g>
</g>
<g>
</g>
<g>
</g>
<g>
</g>
<g>
</g>
<g>
</g>
<g>
</g>
<g>
</g>
<g>
</g>
<g>
</g>
<g>
</g>
<g>
</g>
</svg>
