<?xml version="1.0" encoding="iso-8859-1"?>
<!-- Generator: Adobe Illustrator 18.0.0, SVG Export Plug-In . SVG Version: 6.00 Build 0)  -->
<!DOCTYPE svg PUBLIC "-//W3C//DTD SVG 1.1//EN" "http://www.w3.org/Graphics/SVG/1.1/DTD/svg11.dtd">
<svg xmlns="http://www.w3.org/2000/svg" xmlns:xlink="http://www.w3.org/1999/xlink" version="1.1" id="Capa_1" x="0px" y="0px" viewBox="0 0 298 298" style="enable-background:new 0 0 298 298;" xml:space="preserve" width="512px" height="512px">
<g>
	<path d="M284,144.491h-83.828c3.758,14.073,6.747,28.661,5.032,44.343c-3.242,29.642-28.149,51.994-57.934,51.994   c-2.123,0-4.275-0.118-6.396-0.35c-15.298-1.673-28.906-9.38-38.318-21.701c-8.524-11.159-13.288-25.675-13.415-40.873   c-0.038-4.618,0.311-16.651,3.992-33.413H14c-7.732,0-14,6.268-14,14v96.667c0,7.732,6.268,14,14,14h270c7.732,0,14-6.268,14-14   v-96.667C298,150.759,291.732,144.491,284,144.491z" fill="#999999"/>
	<path d="M142.505,225.567c1.602,0.175,3.19,0.261,4.765,0.261c21.819,0,40.596-16.436,43.023-38.625   c4.981-45.538-38.221-85.461,1.573-147.919c1.781-2.796,1.282-6.471-1.18-8.692c-1.288-1.162-2.917-1.749-4.55-1.749   c-1.487,0-2.977,0.486-4.215,1.467c-64.187,50.835-78.004,120.687-77.781,147.469C104.34,201.71,118.714,222.965,142.505,225.567z    M139.737,204.426c0,4.142-3.358,7.5-7.5,7.5c-4.142,0-7.5-3.358-7.5-7.5c0-4.142,3.358-7.5,7.5-7.5   C136.38,196.926,139.737,200.284,139.737,204.426z M117.508,149.219c1.107-3.99,5.242-6.331,9.23-5.225   c3.988,1.105,6.327,5.231,5.228,9.22c-1.606,5.859-3.996,20.227-1.143,31.975c0.882,3.634-1.177,7.346-4.695,8.616   c-0.047,0.017-0.094,0.034-0.141,0.051c-4.137,1.501-8.704-0.886-9.739-5.164C111.805,170.328,117.205,150.313,117.508,149.219z" fill="#999999"/>
</g>
<g>
</g>
<g>
</g>
<g>
</g>
<g>
</g>
<g>
</g>
<g>
</g>
<g>
</g>
<g>
</g>
<g>
</g>
<g>
</g>
<g>
</g>
<g>
</g>
<g>
</g>
<g>
</g>
<g>
</g>
</svg>
