<?xml version="1.0" encoding="iso-8859-1"?>
<!-- Generator: Adobe Illustrator 16.0.0, SVG Export Plug-In . SVG Version: 6.00 Build 0)  -->
<!DOCTYPE svg PUBLIC "-//W3C//DTD SVG 1.1//EN" "http://www.w3.org/Graphics/SVG/1.1/DTD/svg11.dtd">
<svg xmlns="http://www.w3.org/2000/svg" xmlns:xlink="http://www.w3.org/1999/xlink" version="1.1" id="Capa_1" x="0px" y="0px" width="512px" height="512px" viewBox="0 0 31.866 31.866" style="enable-background:new 0 0 31.866 31.866;" xml:space="preserve">
<g>
	<g>
		<path d="M26.948,3.704h1.865c0.738,0,1.336-0.598,1.336-1.336V1.336C30.149,0.598,29.551,0,28.813,0H3.053    C2.315,0,1.717,0.598,1.717,1.336v1.032c0,0.738,0.598,1.336,1.336,1.336h1.864c0.141,4.957,2.119,9.485,5.176,12.073    c-3.13,2.65-5.126,7.316-5.177,12.439H3.053c-0.738,0-1.336,0.598-1.336,1.336v0.978c0,0.737,0.598,1.336,1.336,1.336h25.76    c0.738,0,1.336-0.599,1.336-1.336v-0.978c0-0.738-0.598-1.336-1.336-1.336h-1.861c-0.051-5.121-2.049-9.787-5.178-12.439    C24.829,13.19,26.807,8.661,26.948,3.704z M18.264,16.895l0.5,0.256c3.391,1.658,5.676,6.054,5.734,11.066H7.366    c0.06-5.014,2.348-9.408,5.737-11.066l0.498-0.252c0.434-0.211,0.708-0.653,0.708-1.137c0-0.481-0.274-0.925-0.708-1.138    l-0.498-0.237C9.795,12.77,7.534,8.497,7.369,3.704h17.129c-0.166,4.793-2.428,9.064-5.733,10.682l-0.5,0.241    c-0.433,0.212-0.705,0.65-0.705,1.133C17.559,16.243,17.833,16.682,18.264,16.895z" fill="#999999"/>
		<path d="M10.497,26.961h11.592c-0.396-2.832-2.826-5.068-5.795-5.068C13.323,21.893,10.895,24.129,10.497,26.961z" fill="#999999"/>
		<path d="M20.268,11.712h-8.69c1.068,1.197,2.606,1.97,4.345,1.97S19.198,12.91,20.268,11.712z" fill="#999999"/>
	</g>
</g>
<g>
</g>
<g>
</g>
<g>
</g>
<g>
</g>
<g>
</g>
<g>
</g>
<g>
</g>
<g>
</g>
<g>
</g>
<g>
</g>
<g>
</g>
<g>
</g>
<g>
</g>
<g>
</g>
<g>
</g>
</svg>
