<?xml version="1.0" encoding="iso-8859-1"?>
<!-- Generator: Adobe Illustrator 18.0.0, SVG Export Plug-In . SVG Version: 6.00 Build 0)  -->
<!DOCTYPE svg PUBLIC "-//W3C//DTD SVG 1.1//EN" "http://www.w3.org/Graphics/SVG/1.1/DTD/svg11.dtd">
<svg xmlns="http://www.w3.org/2000/svg" xmlns:xlink="http://www.w3.org/1999/xlink" version="1.1" id="Capa_1" x="0px" y="0px" viewBox="0 0 297 297" style="enable-background:new 0 0 297 297;" xml:space="preserve" width="512px" height="512px">
<path d="M48.923,287.116c0,5.458,4.426,9.884,9.884,9.884s9.883-4.426,9.883-9.884v-34.42c0-2.534,2.054-4.588,4.588-4.588h88.803  c47.419,0,85.997-33.708,85.997-75.139v-16.315c0-2.846-1.238-5.554-3.379-7.43c-2.141-1.878-4.991-2.739-7.819-2.365  c-0.042,0.006-4.355,0.564-11.255,0.564c-30.144,0.001-101.553-10.346-113.53-106.192c-0.619-4.946-4.824-8.658-9.808-8.658H73.277  c-2.534,0-4.588-2.054-4.588-4.588V9.884C68.689,4.426,64.265,0,58.807,0s-9.884,4.426-9.884,9.884V287.116z" fill="#FFFFFF"/>
<g>
</g>
<g>
</g>
<g>
</g>
<g>
</g>
<g>
</g>
<g>
</g>
<g>
</g>
<g>
</g>
<g>
</g>
<g>
</g>
<g>
</g>
<g>
</g>
<g>
</g>
<g>
</g>
<g>
</g>
</svg>
