<?xml version="1.0" encoding="iso-8859-1"?>
<!-- Generator: Adobe Illustrator 19.0.0, SVG Export Plug-In . SVG Version: 6.00 Build 0)  -->
<svg version="1.1" id="Capa_1" xmlns="http://www.w3.org/2000/svg" xmlns:xlink="http://www.w3.org/1999/xlink" x="0px" y="0px"
	 viewBox="0 0 512 512" style="enable-background:new 0 0 512 512;" xml:space="preserve">
<g>
	<g>
		<path d="M256,196.433c-7.771,11.025-17.864,30.914-20.414,61.901h40.826C273.864,227.347,263.77,207.458,256,196.433z"/>
	</g>
</g>
<g>
	<g>
		<path d="M306.505,288.336c-1.872,26.47-8.536,46.92-15.98,62.02c24.993-11.248,43.551-34.297,48.546-62.02H306.505z"/>
	</g>
</g>
<g>
	<g>
		<path d="M235.601,288.336c2.583,30.72,12.726,50.719,20.461,61.812c7.763-11.042,17.809-30.907,20.35-61.812H235.601z"/>
	</g>
</g>
<g>
	<g>
		<path d="M290.525,196.314c7.445,15.099,14.107,35.55,15.98,62.019h32.565C334.076,230.613,315.518,207.562,290.525,196.314z"/>
	</g>
</g>
<g>
	<g>
		<path d="M205.494,288.336H172.93c4.994,27.721,23.553,50.771,48.544,62.018C214.03,335.256,207.367,314.806,205.494,288.336z"/>
	</g>
</g>
<g>
	<g>
		<path d="M172.93,258.334h32.564c1.872-26.47,8.536-46.92,15.98-62.018C196.482,207.563,177.924,230.613,172.93,258.334z"/>
	</g>
</g>
<g>
	<g>
		<path d="M81.514,94.699V512h348.972V94.699H81.514z M355.434,447.821H156.567v-30.002h198.866V447.821z M256,387.77
			c-63.1,0-114.433-51.336-114.433-114.435S192.901,158.901,256,158.901c63.1,0,114.434,51.335,114.434,114.434
			S319.099,387.77,256,387.77z"/>
	</g>
</g>
<g>
	<g>
		<polygon points="94.944,64.697 400.461,64.697 400.461,0 		"/>
	</g>
</g>
<g>
</g>
<g>
</g>
<g>
</g>
<g>
</g>
<g>
</g>
<g>
</g>
<g>
</g>
<g>
</g>
<g>
</g>
<g>
</g>
<g>
</g>
<g>
</g>
<g>
</g>
<g>
</g>
<g>
</g>
</svg>
