<?xml version="1.0" encoding="iso-8859-1"?>
<!-- Generator: Adobe Illustrator 16.0.0, SVG Export Plug-In . SVG Version: 6.00 Build 0)  -->
<!DOCTYPE svg PUBLIC "-//W3C//DTD SVG 1.1//EN" "http://www.w3.org/Graphics/SVG/1.1/DTD/svg11.dtd">
<svg xmlns="http://www.w3.org/2000/svg" xmlns:xlink="http://www.w3.org/1999/xlink" version="1.1" id="Capa_1" x="0px" y="0px" width="512px" height="512px" viewBox="0 0 31.729 31.729" style="enable-background:new 0 0 31.729 31.729;" xml:space="preserve">
<g>
	<g>
		<path d="M11.878,1.219C11.098,0.439,10.039,0,8.935,0C7.832,0,6.773,0.438,5.993,1.219L1.219,5.993    C0.439,6.773,0,7.832,0.001,8.935c0,1.104,0.438,2.162,1.219,2.942l2.387,2.387L14.265,3.606L11.878,1.219z" fill="#999999"/>
		<path d="M17.463,28.122l2.387,2.388c1.625,1.625,4.26,1.625,5.885,0l4.774-4.774c1.626-1.625,1.626-4.261,0.001-5.886    l-2.387-2.387L17.463,28.122z" fill="#999999"/>
		<path d="M30.51,11.879c1.625-1.625,1.625-4.26,0-5.885l-4.773-4.775C24.956,0.439,23.896,0,22.793,0s-2.162,0.438-2.941,1.219    L1.219,19.85c-1.625,1.625-1.625,4.26,0,5.885l4.774,4.773c1.625,1.625,4.26,1.625,5.885,0L30.51,11.879z M16.975,16.084    c-0.367,0.369-0.963,0.369-1.331,0c-0.368-0.367-0.368-0.964,0-1.332c0.368-0.369,0.964-0.369,1.331,0    C17.345,15.12,17.345,15.717,16.975,16.084z M16.962,20.69c-0.367,0.366-0.964,0.366-1.332,0c-0.368-0.368-0.368-0.966,0-1.333    c0.367-0.368,0.964-0.368,1.332,0C17.332,19.725,17.332,20.322,16.962,20.69z M17.074,11.395c-0.367,0.368-0.962,0.368-1.332,0    c-0.368-0.368-0.368-0.964,0-1.332c0.369-0.37,0.965-0.37,1.332,0C17.443,10.429,17.443,11.026,17.074,11.395z M14.679,13.788    c-0.367,0.369-0.963,0.369-1.331,0c-0.37-0.368-0.37-0.964,0-1.332c0.368-0.369,0.964-0.369,1.331,0    C15.047,12.824,15.047,13.42,14.679,13.788z M11.038,14.765c0.369-0.366,0.965-0.366,1.332,0c0.369,0.368,0.369,0.965,0,1.333    c-0.368,0.367-0.964,0.367-1.332,0C10.67,15.731,10.67,15.133,11.038,14.765z M13.335,18.395c-0.369-0.367-0.369-0.965,0-1.332    c0.367-0.368,0.964-0.368,1.332,0c0.368,0.367,0.368,0.965,0,1.332C14.299,18.762,13.702,18.762,13.335,18.395z M21.667,15.986    c-0.368,0.368-0.964,0.368-1.332,0c-0.368-0.369-0.368-0.965,0-1.332c0.368-0.368,0.964-0.368,1.332,0    C22.035,15.021,22.035,15.617,21.667,15.986z M19.371,13.689c-0.368,0.368-0.965,0.368-1.331,0c-0.368-0.368-0.368-0.965,0-1.332    c0.366-0.368,0.963-0.368,1.331,0C19.74,12.724,19.74,13.322,19.371,13.689z M17.941,17.049c0.367-0.369,0.963-0.369,1.332,0    c0.367,0.367,0.367,0.963,0,1.332c-0.369,0.368-0.965,0.368-1.332,0C17.57,18.012,17.57,17.416,17.941,17.049z" fill="#999999"/>
	</g>
</g>
<g>
</g>
<g>
</g>
<g>
</g>
<g>
</g>
<g>
</g>
<g>
</g>
<g>
</g>
<g>
</g>
<g>
</g>
<g>
</g>
<g>
</g>
<g>
</g>
<g>
</g>
<g>
</g>
<g>
</g>
</svg>
